<?xml version="1.0" standalone="no"?>
<!DOCTYPE svg PUBLIC "-//W3C//DTD SVG 20010904//EN"
 "http://www.w3.org/TR/2001/REC-SVG-20010904/DTD/svg10.dtd">
<svg version="1.0" xmlns="http://www.w3.org/2000/svg"
 width="1024.000000pt" height="1024.000000pt" viewBox="0 0 1024.000000 1024.000000"
 preserveAspectRatio="xMidYMid meet">

<g transform="translate(0.000000,1024.000000) scale(0.100000,-0.100000)"
fill="#000000" stroke="none">
<path d="M5219 9256 c-2 -2 -85 -9 -184 -15 -247 -17 -425 -36 -589 -67 -973
-178 -1803 -673 -2420 -1444 -794 -990 -1091 -2301 -785 -3460 155 -586 407
-1094 762 -1535 689 -856 1598 -1352 2717 -1480 409 -46 798 -43 1090 9 46 9
102 13 125 11 28 -4 34 -3 20 3 -16 7 -12 10 26 16 25 4 52 4 61 1 38 -15 337
54 573 131 720 236 1203 520 1709 1004 255 244 535 631 711 980 145 289 289
766 344 1140 70 470 62 850 -25 1340 -141 788 -509 1525 -1062 2128 -217 236
-567 509 -877 683 -480 269 -893 412 -1424 494 -253 39 -753 78 -772 61z m271
-37 c469 -22 928 -113 1315 -260 190 -72 542 -249 695 -350 134 -87 159 -101
145 -79 -5 9 -4 11 4 6 6 -4 9 -11 6 -16 -6 -9 18 -31 39 -34 8 -1 23 -11 33
-22 10 -11 14 -13 8 -5 -5 9 22 -7 60 -33 306 -214 626 -555 880 -936 294
-443 476 -849 594 -1330 178 -723 172 -1430 -20 -2087 -44 -152 -123 -358
-148 -387 -9 -10 -15 -20 -13 -22 6 -10 1 -25 -7 -19 -8 4 -30 -44 -31 -67 0
-4 -11 -19 -24 -33 -13 -14 -39 -55 -56 -91 -18 -35 -43 -73 -56 -83 -13 -10
-21 -21 -17 -24 3 -4 -6 -25 -21 -47 -14 -22 -26 -44 -26 -50 0 -5 -4 -10 -9
-10 -6 0 -22 -23 -36 -52 -14 -29 -39 -64 -54 -78 -15 -15 -25 -32 -23 -40 3
-7 0 -10 -5 -7 -6 4 -16 -6 -24 -21 -8 -15 -19 -30 -25 -34 -7 -4 -14 -18 -18
-31 -3 -13 -24 -43 -46 -67 -23 -25 -48 -59 -57 -77 -8 -18 -20 -33 -25 -33
-5 0 -6 -5 -2 -12 4 -7 3 -8 -5 -4 -13 9 -56 -40 -56 -64 0 -8 -8 -15 -18 -15
-19 0 -39 -24 -31 -37 3 -4 -5 -8 -17 -8 -12 0 -30 -10 -40 -22 -11 -11 -19
-17 -19 -13 0 4 -8 -2 -19 -13 -10 -12 -25 -22 -33 -22 -15 0 -78 -65 -78 -82
0 -5 -4 -7 -9 -4 -5 4 -26 -10 -46 -29 -20 -20 -48 -40 -61 -46 -14 -5 -23
-13 -19 -18 3 -5 -4 -12 -15 -16 -11 -3 -28 -17 -39 -31 -10 -13 -24 -24 -30
-24 -7 0 -14 -6 -17 -14 -3 -8 -12 -12 -20 -9 -9 3 -14 0 -12 -8 2 -7 -7 -18
-19 -24 -13 -5 -23 -13 -23 -17 0 -5 -9 -8 -21 -8 -11 0 -18 -4 -14 -9 3 -5
-5 -13 -17 -17 -12 -3 -28 -13 -36 -20 -7 -8 -22 -14 -33 -14 -10 0 -19 -4
-19 -9 0 -5 -18 -12 -40 -16 -25 -4 -40 -12 -40 -21 0 -13 -53 -32 -72 -26 -5
1 -8 -3 -8 -9 0 -8 -4 -8 -14 0 -11 10 -16 9 -24 -5 -10 -19 -58 -27 -82 -14
-11 6 -20 3 -28 -11 -7 -10 -18 -19 -25 -19 -8 0 -8 3 2 9 23 15 -12 43 -44
35 -26 -6 -34 -29 -12 -37 6 -2 9 -8 5 -12 -4 -4 -19 5 -33 19 -14 14 -28 26
-30 26 -13 0 -35 -14 -35 -22 0 -5 5 -6 12 -2 7 5 8 3 3 -6 -6 -10 -11 -10
-20 3 -7 10 -17 17 -23 17 -6 0 -10 9 -9 20 1 11 5 20 10 20 5 0 4 6 -2 13 -6
8 -7 18 -3 22 4 5 1 5 -6 1 -7 -4 -10 -11 -7 -16 6 -10 -54 -32 -67 -24 -5 3
-6 14 -3 25 5 14 2 19 -11 19 -10 0 -15 3 -11 6 3 3 2 17 -4 31 -6 16 -6 22 1
18 14 -9 12 9 -2 24 -11 10 -10 12 2 9 8 -2 15 4 16 12 4 42 4 43 17 31 20
-16 27 -3 15 24 -12 28 -4 60 13 49 7 -4 9 -3 6 4 -9 13 2 44 13 37 12 -8 42
45 36 62 -5 12 -3 13 6 6 8 -7 22 -7 36 -2 20 7 21 12 12 30 -10 19 -10 20 8
10 17 -9 19 -8 15 9 -4 14 0 20 12 20 9 0 19 9 22 20 3 11 9 18 13 15 4 -3 14
3 21 12 10 12 10 14 2 9 -7 -4 -13 -4 -13 -1 0 11 28 35 40 35 6 0 13 7 16 15
4 8 10 15 16 15 5 0 6 -5 2 -12 -4 -7 -3 -8 5 -4 9 6 9 11 0 22 -10 12 -10 15
1 12 7 -2 19 7 25 19 7 13 15 20 19 15 4 -4 7 -2 6 3 -5 21 1 27 14 16 12 -10
14 -9 11 6 -3 22 24 55 38 46 5 -3 7 -1 4 4 -4 6 12 27 35 47 23 20 46 45 52
55 32 53 53 80 59 76 4 -3 5 -2 2 2 -3 3 12 27 32 52 46 58 58 79 18 32 -139
-163 -175 -205 -237 -268 -44 -45 -67 -76 -62 -84 4 -8 3 -9 -5 -5 -6 4 -48
-27 -104 -78 -176 -163 -353 -293 -597 -439 -165 -98 -240 -132 -240 -108 0 5
63 62 141 127 261 221 474 411 564 505 117 122 175 186 175 194 0 3 15 19 34
35 18 17 36 40 39 51 6 21 5 21 -20 -2 -15 -13 -42 -42 -62 -63 -70 -78 -99
-105 -103 -101 -3 3 -16 -7 -30 -22 -39 -44 -97 -93 -108 -93 -5 0 -10 -4 -10
-9 0 -4 -36 -35 -81 -67 -44 -32 -89 -66 -99 -74 -10 -8 -31 -24 -46 -35 -16
-11 -36 -28 -46 -38 -10 -9 -23 -17 -28 -17 -6 0 -49 -37 -96 -82 -47 -46 -90
-82 -95 -80 -5 1 -8 -3 -7 -10 2 -6 -12 -16 -29 -21 -18 -5 -33 -14 -33 -18 0
-5 -6 -9 -14 -9 -7 0 -19 -7 -26 -15 -8 -10 -18 -12 -28 -6 -16 9 -82 -23 -82
-40 0 -5 -7 -9 -15 -9 -8 0 -15 5 -15 10 0 15 -16 12 -34 -6 -12 -12 -16 -12
-16 -2 0 10 -3 9 -10 -2 -9 -13 -10 -13 -10 0 0 10 -3 11 -8 4 -8 -13 -82 -24
-82 -12 0 4 -4 8 -10 8 -5 0 -10 -6 -10 -14 0 -8 -6 -16 -14 -19 -10 -4 -12 0
-9 14 5 17 0 19 -41 19 -35 0 -46 -4 -46 -15 0 -13 7 -15 33 -10 26 5 34 3 34
-9 0 -12 -9 -15 -41 -11 -85 9 -104 16 -99 36 3 11 0 19 -7 19 -8 0 -11 -11
-8 -30 3 -17 1 -33 -3 -36 -5 -3 -11 13 -15 34 l-6 40 -59 -4 c-32 -2 -61 1
-64 6 -4 6 -17 10 -31 10 -16 0 -24 6 -24 18 0 10 -5 23 -12 30 -8 8 -8 15 1
26 7 8 10 20 6 26 -3 5 1 13 9 16 10 4 16 18 16 35 0 19 5 29 15 29 8 0 15 5
15 11 0 5 -4 7 -10 4 -16 -10 -11 31 5 45 9 8 13 21 9 32 -4 13 2 29 18 46 14
15 31 46 38 70 9 29 18 41 27 38 8 -3 11 -1 8 4 -3 6 -1 10 5 10 6 0 3 12 -7
27 -15 25 -16 26 -1 15 14 -11 16 -11 11 8 -4 14 -1 20 8 18 10 -2 13 6 10 26
-2 25 0 28 18 23 17 -4 21 -1 21 20 0 15 4 22 11 17 8 -4 8 -1 2 12 -5 11 -8
32 -7 48 1 27 0 28 -13 10 -28 -37 -33 -53 -21 -60 7 -5 8 -3 3 7 -5 8 -4 10
0 6 5 -4 10 -15 11 -24 2 -12 0 -13 -9 -4 -18 18 -24 14 -67 -50 -34 -49 -39
-63 -29 -75 6 -8 9 -17 5 -21 -3 -3 -6 -1 -6 6 0 7 -5 9 -12 5 -7 -5 -8 -3 -3
6 5 8 4 11 -2 7 -14 -9 -186 -258 -261 -377 -88 -142 -205 -355 -240 -440 -43
-105 -67 -210 -92 -395 -12 -88 -24 -175 -26 -192 -5 -30 -8 -33 -40 -33 -43
0 -42 -3 -84 215 -22 115 -39 180 -53 200 -12 17 -85 109 -162 205 -211 262
-389 503 -544 733 -63 94 -69 107 -46 107 27 0 76 -58 178 -208 117 -174 308
-429 451 -602 61 -74 121 -147 131 -162 11 -15 24 -28 28 -28 5 0 7 72 5 160
l-3 160 45 5 c97 13 156 28 174 44 93 82 545 782 859 1331 257 449 433 872
550 1318 36 134 48 162 73 162 17 0 17 -1 -1 -96 -19 -102 -12 -108 11 -8 15
67 16 108 10 294 -12 343 -13 470 -3 470 13 0 -2 111 -19 134 -16 23 -19 50
-4 41 6 -3 7 1 4 9 -7 19 -21 21 -27 4 -2 -7 -7 1 -11 18 -4 16 -2 41 3 55
l10 24 1 -25 c1 -14 4 -20 6 -13 18 42 -135 498 -269 804 -153 350 -445 865
-684 1208 -68 97 -292 365 -300 357 -2 -2 5 -29 15 -60 10 -31 18 -56 16 -56
-1 0 -12 16 -24 36 -12 19 -24 33 -27 31 -2 -3 20 -45 50 -94 29 -48 75 -125
101 -170 26 -44 97 -152 158 -240 174 -249 259 -378 338 -513 94 -162 249
-473 307 -614 56 -138 72 -176 84 -198 5 -10 9 -25 9 -33 0 -8 4 -23 9 -33 17
-34 30 -70 85 -242 71 -223 90 -303 115 -470 31 -208 30 -200 10 -189 -21 11
-25 24 -34 104 -9 86 -24 170 -45 245 -10 36 -21 88 -25 115 -4 28 -11 58 -16
67 -7 13 -66 206 -83 273 -2 6 -7 19 -11 30 -34 84 -44 118 -39 127 4 6 2 8
-3 5 -6 -4 -14 5 -18 20 -11 46 -173 405 -254 565 -77 152 -194 355 -226 393
-16 19 -16 19 -1 -7 208 -353 426 -823 530 -1146 62 -192 124 -455 144 -609 8
-54 6 -63 -7 -63 -12 0 -13 -2 -3 -8 12 -8 6 -46 -7 -38 -3 2 -12 -2 -19 -10
-10 -11 -10 -14 0 -14 10 0 9 -3 -1 -9 -12 -8 -13 -14 -3 -37 7 -14 11 -28 9
-31 -12 -11 -193 454 -227 582 -11 44 -24 86 -28 94 -6 11 -79 13 -401 12
l-394 -2 15 23 c179 276 225 388 235 573 14 272 -61 589 -267 1130 -48 127
-91 241 -95 255 -15 51 -127 335 -136 346 -11 13 -47 32 -158 80 -67 29 -75
36 -95 80 l-22 47 -71 -79 c-95 -105 -191 -225 -330 -416 -63 -87 -119 -158
-123 -158 -5 0 -30 -21 -56 -47 -39 -40 -44 -43 -31 -18 60 116 306 450 477
649 61 71 117 141 124 155 18 35 44 234 58 454 l12 177 46 -1 c25 0 133 -5
240 -10z m-1813 -985 l17 -26 -115 -106 c-280 -257 -475 -477 -699 -783 -207
-285 -324 -486 -460 -794 -43 -97 -81 -169 -97 -184 -75 -66 -185 -634 -199
-1026 -10 -247 13 -453 77 -725 17 -69 41 -175 54 -237 13 -62 39 -147 58
-190 19 -43 49 -118 67 -168 228 -634 644 -1242 1194 -1744 137 -125 153 -141
141 -141 -25 0 -496 440 -628 587 -282 315 -512 679 -676 1069 -80 190 -129
348 -237 762 -8 29 -21 63 -29 75 -29 44 -58 323 -58 562 -1 598 146 1170 439
1706 224 411 497 763 793 1022 324 283 342 301 338 316 -3 9 -8 24 -12 34 -11
27 12 20 32 -9z m850 -512 c9 -6 -10 -55 -71 -182 -201 -420 -249 -593 -225
-822 23 -223 77 -362 275 -703 l23 -41 -384 4 c-330 4 -385 2 -385 -10 0 -8
-20 -77 -44 -154 -24 -76 -58 -186 -76 -244 -47 -149 -70 -191 -141 -250 -68
-57 -91 -56 -71 2 l11 33 -6 -40 c-3 -23 -2 -36 3 -32 5 5 10 13 10 18 1 5 2
14 3 19 0 6 4 9 9 9 24 -4 42 2 36 13 -4 6 -3 8 4 4 6 -3 14 -1 18 5 4 7 3 9
-4 5 -6 -3 -15 1 -20 10 -10 19 -36 10 -26 -9 3 -7 -1 -4 -9 6 -11 14 -16 15
-20 5 -3 -8 -6 -5 -7 7 -2 11 -8 -9 -16 -45 l-13 -65 5 65 c18 239 139 679
274 1000 93 222 259 551 378 750 121 203 431 650 449 650 5 0 14 -4 20 -8z
m954 -883 c110 -138 203 -257 205 -264 6 -15 -46 -111 -291 -535 -100 -173
-208 -361 -240 -418 -31 -56 -61 -104 -65 -107 -4 -3 -11 2 -14 11 -13 33
-323 556 -453 761 -73 117 -133 216 -133 220 1 17 754 583 775 583 8 0 105
-113 216 -251z m1304 -1048 c3 -20 -4 -4 -15 34 -11 39 -19 75 -19 80 1 16 28
-75 34 -114z m29 36 c-6 -19 -7 -19 -16 -3 -5 10 -7 29 -3 44 l7 27 9 -24 c5
-13 7 -33 3 -44z m-7 -139 c-3 -8 -6 -5 -6 6 -1 11 2 17 5 13 3 -3 4 -12 1
-19z m40 -40 c-3 -8 -6 -5 -6 6 -1 11 2 17 5 13 3 -3 4 -12 1 -19z m10 -50
c-3 -8 -6 -5 -6 6 -1 11 2 17 5 13 3 -3 4 -12 1 -19z m-777 -190 c77 -199 350
-981 350 -1002 0 -3 -83 -6 -184 -6 l-184 0 -119 -84 c-65 -47 -121 -82 -125
-78 -12 12 -118 255 -128 294 -6 20 -23 65 -38 98 l-27 62 -55 -59 c-204 -220
-454 -472 -462 -467 -5 3 -89 106 -186 227 -97 122 -201 248 -231 280 l-55 59
-28 -55 c-15 -30 -64 -144 -109 -254 -45 -109 -84 -200 -85 -202 -2 -2 -28 18
-57 46 -29 27 -78 67 -109 88 l-58 38 -179 5 -179 5 24 70 c13 38 21 73 19 77
-3 5 0 10 5 12 10 3 160 462 255 778 21 69 40 128 44 132 3 3 71 -18 151 -49
80 -31 268 -101 419 -157 l274 -101 32 -93 c17 -51 35 -96 39 -100 11 -10 33
24 56 87 36 101 34 99 175 151 112 41 632 244 690 270 11 5 23 9 27 9 3 1 21
-36 38 -81z m-2650 -566 c0 -8 -49 32 -54 44 -3 9 7 3 24 -13 16 -15 30 -29
30 -31z m41 -29 c13 -16 12 -17 -3 -4 -17 13 -22 21 -14 21 2 0 10 -8 17 -17z
m-17 -148 c3 -11 -4 3 -18 30 -13 28 -26 66 -30 85 -5 30 24 -42 48 -115z
m3296 130 c-6 -8 -36 -30 -66 -50 -52 -35 -72 -61 -36 -48 15 6 15 5 3 -11 -8
-9 -17 -13 -20 -8 -3 5 -14 8 -24 6 -27 -4 -34 -14 -10 -14 16 0 20 -5 16 -20
-6 -22 -38 -44 -52 -36 -5 3 -14 -1 -21 -9 -13 -16 -31 -20 -29 -7 4 25 -4 22
-16 -5 -8 -18 -20 -33 -27 -33 -9 0 -9 3 0 12 20 20 14 30 -10 17 -13 -6 -19
-8 -15 -3 9 9 309 221 316 223 2 1 -2 -6 -9 -14z m-68 -87 c-7 -7 -12 -8 -12
-2 0 14 12 26 19 19 2 -3 -1 -11 -7 -17z m-3192 -108 c6 -11 8 -20 6 -20 -3 0
-10 9 -16 20 -6 11 -8 20 -6 20 3 0 10 -9 16 -20z m3067 -11 c2 -16 -1 -19 -9
-11 -5 5 -7 15 -4 21 10 15 12 14 13 -10z m-17 -22 c0 -2 -8 -3 -18 -4 -10 -1
-19 5 -19 12 0 10 5 11 19 4 10 -5 18 -11 18 -12z m-106 5 c3 -5 -1 -9 -9 -9
-8 0 -12 4 -9 9 3 4 7 8 9 8 2 0 6 -4 9 -8z m70 -202 c-2 -26 -63 -184 -90
-233 -9 -15 -13 -35 -10 -43 3 -8 2 -13 -3 -10 -12 8 -54 -92 -47 -110 3 -8 2
-13 -3 -9 -12 7 -133 -224 -124 -237 3 -7 1 -8 -5 -4 -13 8 -56 -70 -47 -85 4
-5 1 -8 -6 -7 -6 2 -14 -3 -17 -11 -3 -9 0 -11 8 -6 9 5 11 4 6 -4 -4 -6 -11
-9 -15 -6 -5 2 -17 -12 -27 -33 -10 -20 -24 -41 -30 -47 -6 -5 -31 -39 -56
-75 -54 -77 -126 -156 -388 -430 -321 -335 -474 -507 -542 -610 l-30 -45 6 75
c19 248 128 604 348 1135 41 99 78 192 82 208 3 15 12 27 20 27 17 0 325 193
666 417 269 177 307 195 304 143z m-2719 -7 c17 -3 64 -32 105 -63 41 -31 129
-94 195 -140 136 -95 542 -397 550 -409 2 -5 -25 -86 -60 -181 -36 -95 -86
-234 -112 -309 -25 -75 -48 -138 -50 -140 -6 -8 -70 27 -106 58 -60 53 -165
296 -257 592 -60 197 -80 239 -162 346 -35 45 -91 118 -126 163 -62 81 -70
108 -28 95 11 -4 35 -9 51 -12z m-67 -298 c-3 -3 -9 2 -12 12 -6 14 -5 15 5 6
7 -7 10 -15 7 -18z m41 -90 c0 -5 -8 6 -19 25 -11 19 -19 40 -19 45 0 6 8 -6
19 -25 11 -19 19 -39 19 -45z m2627 49 c-4 -9 -9 -15 -11 -12 -3 3 -3 13 1 22
4 9 9 15 11 12 3 -3 3 -13 -1 -22z m-2598 -106 c6 -16 10 -28 7 -28 -5 0 -35
56 -35 67 0 12 15 -10 28 -39z m5229 -490 c-74 -150 -171 -319 -236 -408 -17
-25 -53 -76 -78 -115 -132 -201 -264 -350 -487 -550 -160 -143 -437 -360 -501
-392 -16 -9 -37 -21 -45 -28 -24 -20 -212 -127 -216 -122 -2 2 15 14 39 27 66
37 265 170 368 247 258 191 549 464 703 658 164 207 350 502 472 747 26 54 50
95 52 93 3 -2 -29 -73 -71 -157z m-3163 -356 c-24 -28 -38 -17 -17 14 10 16
20 21 25 16 6 -6 3 -18 -8 -30z m-37 -52 c-1 -22 -2 -22 -34 -14 -33 9 -28 29
6 31 24 2 29 -2 28 -17z m-1567 -20 c6 -11 8 -20 6 -20 -3 0 -10 9 -16 20 -6
11 -8 20 -6 20 3 0 10 -9 16 -20z m1556 -20 c7 0 16 -5 20 -12 5 -8 0 -9 -15
-5 -18 4 -20 3 -11 -8 8 -10 8 -15 -3 -22 -7 -4 -17 -16 -20 -27 -4 -11 -13
-16 -22 -12 -8 3 -25 -5 -37 -19 -19 -20 -28 -23 -52 -17 -42 12 -42 24 4 57
41 31 52 49 24 38 -14 -5 -14 -3 2 15 9 12 22 19 26 15 5 -3 12 4 15 16 l5 21
25 -20 c14 -11 32 -20 39 -20z m-210 -153 c0 -13 -6 -24 -12 -24 -6 0 -9 11
-6 24 6 30 20 30 18 0z m84 3 c0 -5 -11 -10 -25 -10 -14 0 -25 5 -25 10 0 6
11 10 25 10 14 0 25 -4 25 -10z m-50 -40 c0 -5 -2 -10 -4 -10 -3 0 -8 5 -11
10 -3 6 -1 10 4 10 6 0 11 -4 11 -10z m-40 -42 c0 -5 -4 -8 -10 -8 -5 0 -10
10 -10 23 0 18 2 19 10 7 5 -8 10 -18 10 -22z m-48 -3 c1 -11 8 -24 13 -28 6
-5 4 -7 -5 -4 -8 2 -17 17 -18 33 -4 32 4 31 10 -1z m423 -14 c3 -5 2 -12 -3
-15 -5 -3 -9 1 -9 9 0 17 3 19 12 6z m-48 -156 c0 -8 -4 -12 -9 -9 -5 3 -6 10
-3 15 9 13 12 11 12 -6z m1303 -485 c0 -5 -4 -10 -10 -10 -5 0 -10 5 -10 10 0
6 5 10 10 10 6 0 10 -4 10 -10z m-575 -640 c-11 -5 -27 -9 -35 -9 -9 0 -8 4 5
9 11 5 27 9 35 9 9 0 8 -4 -5 -9z m-118 -36 c-3 -3 -12 -4 -19 -1 -8 3 -5 6 6
6 11 1 17 -2 13 -5z"/>
<path d="M6200 8844 c0 -12 315 -325 490 -487 268 -248 308 -290 732 -770 212
-240 298 -355 424 -564 164 -272 329 -644 303 -684 -5 -8 -9 -11 -10 -6 -1 4
-3 12 -4 17 -1 6 -3 15 -4 20 -2 15 -31 12 -31 -4 0 -15 60 -188 87 -249 12
-27 21 -36 33 -32 13 4 19 -2 24 -26 9 -46 7 -91 -3 -85 -5 3 -3 -15 5 -40 8
-26 19 -94 24 -153 6 -58 17 -178 26 -266 18 -193 21 -588 5 -740 -26 -244
-94 -562 -171 -802 -33 -103 -39 -160 -15 -160 8 0 15 6 15 14 0 7 7 13 15 13
15 0 19 -11 15 -39 -1 -10 3 -10 15 3 10 9 20 14 24 10 3 -4 0 -9 -6 -11 -7
-3 -13 -12 -13 -20 0 -34 28 10 58 90 68 180 124 427 165 721 20 144 22 201
21 541 0 437 -11 561 -75 878 -88 438 -236 813 -484 1225 -239 397 -569 755
-940 1017 -38 27 -105 78 -148 112 -43 35 -96 75 -118 90 -21 14 -39 27 -39
30 0 11 93 -51 143 -96 15 -14 27 -20 27 -15 0 22 -187 192 -327 296 -140 105
-263 185 -263 172z"/>
<path d="M7785 8417 c11 -10 67 -57 125 -105 58 -47 159 -138 225 -202 74 -71
103 -95 76 -63 -41 51 -261 248 -371 333 -61 48 -87 65 -55 37z"/>
<path d="M6040 7310 c6 -11 13 -20 16 -20 2 0 0 9 -6 20 -6 11 -13 20 -16 20
-2 0 0 -9 6 -20z"/>
<path d="M6521 5954 c0 -11 3 -14 6 -6 3 7 2 16 -1 19 -3 4 -6 -2 -5 -13z"/>
<path d="M6882 5480 c0 -19 2 -27 5 -17 2 9 2 25 0 35 -3 9 -5 1 -5 -18z"/>
<path d="M7675 3230 c-3 -5 -1 -10 4 -10 6 0 11 5 11 10 0 6 -2 10 -4 10 -3 0
-8 -4 -11 -10z"/>
<path d="M7635 3187 c-32 -39 -37 -47 -28 -47 5 0 19 14 31 30 21 28 18 43 -3
17z"/>
<path d="M7569 3108 c-12 -23 -12 -23 10 -4 23 21 26 26 11 26 -5 0 -15 -10
-21 -22z"/>
<path d="M7520 3049 c-16 -30 -8 -31 13 -3 10 13 13 24 8 24 -6 0 -15 -9 -21
-21z"/>
<path d="M6070 2925 c-7 -8 -11 -15 -9 -16 37 -7 40 -7 30 5 -6 7 -8 16 -4 19
3 4 4 7 1 7 -3 0 -11 -7 -18 -15z"/>
<path d="M6066 2853 c-6 -14 -5 -15 5 -6 7 7 10 15 7 18 -3 3 -9 -2 -12 -12z"/>
<path d="M7202 2200 c0 -14 2 -19 5 -12 2 6 2 18 0 25 -3 6 -5 1 -5 -13z"/>
<path d="M6080 2200 c0 -5 10 -10 23 -10 18 0 19 2 7 10 -19 13 -30 13 -30 0z"/>
<path d="M3431 5444 c0 -11 3 -14 6 -6 3 7 2 16 -1 19 -3 4 -6 -2 -5 -13z"/>
<path d="M3460 5310 c-9 -6 -10 -10 -3 -10 6 0 15 5 18 10 8 12 4 12 -15 0z"/>
<path d="M6565 4661 c-3 -5 -2 -12 3 -15 5 -3 9 1 9 9 0 17 -3 19 -12 6z"/>
<path d="M6540 4641 c0 -7 -4 -10 -9 -6 -5 3 -12 1 -16 -5 -3 -5 1 -10 9 -10
17 0 31 18 22 27 -3 4 -6 1 -6 -6z"/>
<path d="M85 1671 c-3 -5 -2 -12 3 -15 5 -3 9 1 9 9 0 17 -3 19 -12 6z"/>
<path d="M73 1623 c0 -7 4 -13 9 -13 5 0 6 -5 2 -12 -4 -6 -3 -8 4 -4 14 8 11
43 -3 43 -7 0 -12 -6 -12 -14z"/>
<path d="M146 1631 c-14 -5 -16 -10 -8 -15 7 -4 19 0 28 8 17 17 11 19 -20 7z"/>
<path d="M226 1625 c-9 -26 -7 -32 5 -12 6 10 9 21 6 23 -2 3 -7 -2 -11 -11z"/>
<path d="M17 1622 c-2 -7 -2 -23 2 -65 0 -10 5 -16 10 -12 5 3 12 1 16 -5 5
-9 -6 -14 -26 -12 -3 1 -6 -5 -6 -12 0 -8 8 -11 19 -8 10 2 18 9 18 14 0 6 8
8 18 6 12 -3 18 1 19 12 1 9 -5 17 -12 17 -8 0 -11 -5 -8 -10 3 -5 0 -7 -8 -5
-8 3 -13 11 -12 17 2 6 0 10 -5 9 -8 -3 -12 5 -12 26 0 8 8 16 18 18 14 3 13
5 -5 10 -13 3 -24 3 -26 0z"/>
<path d="M285 1619 c-4 -6 -5 -12 -2 -15 2 -3 7 2 10 11 7 17 1 20 -8 4z"/>
<path d="M400 1625 c0 -5 5 -17 10 -25 5 -8 10 -10 10 -5 0 6 -5 17 -10 25 -5
8 -10 11 -10 5z"/>
<path d="M112 1600 c0 -14 2 -19 5 -12 2 6 2 18 0 25 -3 6 -5 1 -5 -13z"/>
<path d="M164 1595 c-5 -22 -9 -24 -22 -13 -13 11 -14 11 -8 0 8 -13 -11 -45
-23 -38 -4 3 -7 -4 -7 -14 0 -10 4 -16 8 -14 10 6 5 -32 -5 -42 -4 -4 -7 0 -7
8 0 17 -24 31 -34 21 -3 -4 -6 -13 -5 -22 0 -12 3 -11 9 4 7 16 9 17 9 3 1
-21 20 -27 47 -17 23 8 34 3 34 -14 0 -6 -3 -7 -7 -4 -3 4 -18 0 -32 -9 -14
-9 -23 -13 -18 -9 4 5 -6 14 -23 21 -16 7 -30 20 -30 29 0 8 -4 15 -9 15 -6 0
-9 -18 -7 -41 2 -27 0 -39 -8 -36 -7 3 -13 -4 -13 -14 -1 -10 3 -19 8 -19 6 0
8 4 5 9 -3 5 1 12 11 15 18 7 53 -20 53 -42 0 -9 6 -12 16 -8 12 5 11 -1 -6
-29 -29 -46 -34 -81 -14 -89 12 -4 14 -1 9 14 -5 16 -2 20 17 21 13 1 27 1 31
0 5 -1 5 4 1 11 -6 9 -3 9 9 -1 21 -17 22 -35 2 -27 -13 5 -13 3 0 -18 14 -21
12 -36 -6 -36 -5 0 -6 7 -3 15 4 8 1 15 -5 15 -6 0 -11 7 -11 15 0 8 -4 15
-10 15 -5 0 -10 -6 -10 -12 0 -19 33 -63 48 -63 6 0 12 -4 13 -10 0 -5 5 -16
11 -22 8 -10 6 -13 -5 -13 -10 0 -15 7 -12 20 3 17 0 19 -21 14 -22 -6 -29 2
-25 28 0 4 -13 15 -29 23 -17 9 -30 22 -30 29 0 8 -6 17 -12 19 -10 4 -10 6
-1 6 7 1 10 8 6 18 -6 15 -7 14 -14 -3 -3 -10 -2 -25 4 -32 6 -7 6 -12 1 -11
-25 4 -34 -3 -34 -28 0 -21 3 -24 9 -13 6 8 7 18 5 22 -8 13 11 9 32 -7 18
-13 18 -14 -5 -8 -17 4 -22 3 -17 -5 4 -7 0 -15 -8 -18 -18 -7 -22 -34 -5 -34
5 0 7 5 4 10 -6 9 8 15 29 11 4 -1 14 6 22 16 12 16 15 16 24 3 15 -23 12 -33
-10 -27 -11 3 -20 1 -20 -4 0 -5 -6 -8 -13 -7 -6 2 -11 -2 -10 -9 2 -6 -6 -14
-16 -18 -16 -5 -20 -17 -23 -69 -2 -41 1 -62 7 -58 6 3 5 -1 -1 -9 -7 -10 -11
-165 -10 -509 l1 -495 1065 0 c586 0 1093 2 1128 3 l63 4 -3 30 c-2 16 2 30 7
30 6 0 9 -14 7 -31 -3 -31 -3 -31 42 -31 30 0 46 4 46 13 0 8 3 8 8 2 10 -16
64 -17 74 -3 6 10 8 10 8 1 0 -7 10 -13 23 -13 16 0 18 3 9 9 -11 7 -11 9 2
14 9 4 15 1 13 -6 -1 -7 11 -13 29 -15 29 -3 31 -1 26 25 -2 15 -2 25 2 21 4
-3 9 -14 10 -25 2 -10 13 -19 26 -21 12 -2 20 0 17 5 -3 5 3 15 14 21 18 12
19 11 10 -6 -8 -15 -6 -18 14 -18 23 0 26 10 10 36 -9 15 33 -16 47 -35 4 -5
8 1 9 15 0 14 3 19 6 12 2 -6 10 -9 16 -5 7 4 7 1 -1 -9 -12 -15 -8 -16 34
-16 33 0 52 5 61 16 11 14 13 14 11 2 -2 -11 8 -16 40 -18 36 -3 44 0 52 20
10 21 10 21 7 2 -4 -17 0 -22 19 -22 15 0 21 5 17 12 -4 7 -1 6 8 -1 19 -16
119 -15 119 1 0 7 3 7 8 -1 9 -14 172 -15 172 -1 0 4 5 8 11 8 5 0 8 -4 4 -10
-3 -5 7 -8 23 -7 18 1 28 7 25 14 -3 8 3 11 15 8 11 -2 23 3 26 11 3 8 -1 14
-8 14 -8 0 -17 7 -20 16 -5 14 -4 15 8 5 8 -7 21 -9 27 -5 9 5 10 1 6 -15 -4
-17 -2 -21 10 -17 8 3 17 6 19 6 3 0 2 5 -1 10 -9 15 24 25 38 11 6 -6 22 -10
37 -10 23 2 23 2 3 6 -13 2 -23 12 -24 21 0 10 -3 12 -6 5 -3 -9 -10 -10 -22
-3 -10 5 -21 7 -23 4 -3 -2 -3 6 -1 20 4 19 10 23 28 20 13 -2 26 0 29 4 3 5
-12 8 -32 7 -20 -1 -41 3 -47 9 -14 13 -8 75 8 96 7 9 2 6 -10 -7 -12 -13 -20
-30 -17 -38 8 -20 -12 -19 -35 2 -40 36 -51 43 -70 43 -11 0 -23 5 -26 10 -4
6 -10 8 -15 5 -18 -11 -21 17 -4 30 18 13 18 14 -3 8 -13 -3 -23 -10 -23 -15
0 -5 -5 -6 -12 -2 -7 4 -8 3 -4 -4 11 -19 -49 -18 -71 0 -9 7 -13 7 -13 0 0
-5 6 -15 14 -22 8 -6 12 -19 9 -27 -4 -11 -3 -14 6 -9 7 5 10 14 7 22 -3 8 1
14 10 14 8 0 12 -5 8 -11 -5 -8 -1 -8 14 0 26 14 32 14 32 1 0 -6 -3 -9 -7 -8
-5 2 -9 -1 -10 -7 -1 -5 -12 -13 -25 -17 -22 -6 -22 -6 -1 -7 12 -1 30 10 41
24 19 23 20 24 25 5 5 -20 -15 -45 -26 -33 -4 3 -13 0 -22 -7 -12 -10 -20 -9
-40 4 -30 20 -30 20 -49 0 -9 -8 -16 -10 -16 -4 0 6 7 13 16 17 13 5 13 7 2
14 -10 7 -9 9 5 9 17 0 22 11 10 23 -3 4 -12 2 -19 -4 -9 -8 -11 -5 -7 11 7
27 29 36 47 21 11 -9 16 -9 22 0 4 7 3 9 -4 5 -6 -3 -13 -2 -17 4 -8 13 -65 9
-66 -5 0 -5 -4 0 -9 13 -5 12 -15 22 -22 22 -9 0 -10 -2 -2 -8 15 -9 21 -53
11 -69 -6 -9 -1 -13 13 -13 16 0 20 -4 16 -16 -3 -9 -6 -18 -6 -22 0 -3 -7 3
-15 14 -9 10 -14 13 -13 5 2 -7 -4 -16 -12 -18 -9 -3 -11 -1 -5 4 17 13 16 33
-1 40 -8 3 -21 0 -27 -7 -10 -10 -8 -12 6 -7 9 4 17 2 17 -3 0 -20 -18 -18
-36 3 -10 12 -15 19 -10 15 5 -4 15 -3 22 3 8 6 20 9 29 6 8 -4 17 -2 20 3 4
6 1 10 -4 10 -6 0 -11 9 -11 19 0 21 -13 34 -24 24 -3 -3 -1 -12 5 -19 8 -9 5
-15 -10 -23 -13 -7 -22 -8 -26 -1 -3 5 -14 9 -23 9 -16 -1 -16 -2 0 -6 10 -3
15 -10 11 -19 -5 -13 -7 -13 -14 -2 -6 9 -11 10 -16 2 -5 -6 -16 -10 -26 -8
-32 4 -32 14 -1 14 25 1 27 2 11 11 -14 8 -16 14 -6 25 9 11 8 14 -9 14 -12 0
-24 5 -27 10 -4 7 -13 7 -26 0 -19 -11 -25 -4 -11 16 9 14 42 9 53 -8 5 -7 9
-9 9 -4 0 5 10 0 23 -11 25 -23 58 -27 50 -6 -3 7 -9 10 -14 7 -5 -3 -12 8
-15 25 -7 35 -18 39 -33 13 -6 -9 -11 -12 -11 -6 0 7 -8 11 -17 10 -10 0 -17
5 -15 11 1 7 -3 13 -9 13 -6 0 -8 -7 -5 -16 5 -14 4 -15 -9 -4 -11 9 -12 17
-4 32 8 16 8 19 -1 13 -9 -5 -10 -1 -5 16 7 23 7 23 -8 4 -8 -11 -13 -23 -11
-27 3 -5 -1 -8 -10 -8 -21 0 -25 -23 -7 -38 14 -10 11 -11 -14 -6 -16 4 -31
11 -33 16 -2 4 -14 5 -27 2 -21 -5 -24 -3 -20 15 2 13 0 19 -6 15 -6 -3 -9
-15 -6 -25 5 -20 -7 -26 -18 -9 -4 6 -11 7 -17 4 -7 -4 -8 -2 -4 5 4 6 12 9
17 6 8 -5 13 14 11 37 -1 3 5 12 13 18 8 7 15 17 15 23 0 6 -7 1 -16 -11 -8
-12 -21 -22 -29 -22 -7 0 -21 -7 -29 -16 -14 -13 -16 -13 -16 -1 0 9 6 18 13
21 6 3 2 3 -10 0 -15 -3 -23 -1 -23 7 0 8 -6 6 -18 -4 -21 -19 -32 -13 -32 15
0 13 -4 17 -12 11 -25 -15 -35 -11 -30 13 2 13 0 24 -7 24 -5 0 -8 -6 -5 -13
6 -18 -22 -42 -31 -27 -9 15 -22 12 -22 -4 0 -8 6 -12 15 -8 9 3 13 1 10 -4
-3 -5 1 -15 9 -23 12 -11 14 -11 11 2 -2 9 2 15 7 14 6 -1 9 -6 7 -11 -2 -5 5
-17 14 -27 16 -18 16 -19 1 -19 -10 0 -17 8 -17 17 0 9 -3 13 -7 10 -3 -4 -13
-1 -21 6 -13 10 -14 9 -8 -1 4 -7 1 -15 -9 -18 -9 -4 -14 -13 -11 -20 6 -15 2
-16 -116 -16 -82 1 -98 5 -98 27 0 8 -5 17 -11 21 -8 5 -10 -1 -7 -20 l5 -26
-114 0 c-89 0 -113 3 -107 13 6 9 5 9 -7 0 -8 -6 -40 -11 -71 -12 -48 0 -58 3
-63 20 -12 38 8 45 129 47 69 1 118 -3 122 -9 4 -7 10 -6 19 1 8 7 22 10 32 7
10 -2 33 5 51 15 28 17 32 18 32 4 0 -9 7 -16 16 -16 8 0 12 4 9 10 -9 15 2
12 19 -6 15 -14 16 -14 16 3 0 15 2 16 10 3 8 -13 10 -12 10 3 0 9 -5 17 -11
17 -8 0 -8 5 1 15 7 8 9 15 5 15 -4 0 -2 7 5 15 16 19 1 19 -27 0 -14 -10 -24
-12 -28 -5 -3 5 -11 10 -17 10 -7 0 -6 -6 2 -15 7 -8 19 -15 26 -15 8 0 14 -5
14 -10 0 -7 -6 -7 -19 -1 -10 6 -22 7 -26 3 -5 -4 -5 -1 -1 6 4 7 1 12 -8 12
-8 0 -16 -5 -18 -10 -2 -6 -9 4 -15 22 -11 28 -10 30 1 16 13 -18 32 -26 22
-10 -2 4 4 8 14 9 11 1 22 -3 25 -8 4 -5 11 -7 16 -3 5 3 7 9 4 14 -11 17 35
17 53 -1 19 -17 20 -65 2 -54 -4 3 -8 -12 -8 -33 -1 -27 4 -39 14 -39 8 0 14
4 14 9 0 4 -4 8 -10 8 -5 0 -10 5 -10 10 0 6 6 10 14 10 8 0 18 5 22 12 4 7 3
8 -4 4 -7 -4 -12 -2 -12 3 0 6 5 11 11 11 5 0 7 5 3 11 -4 8 -1 8 13 1 15 -9
20 -8 20 3 0 8 -4 12 -8 10 -3 -3 -9 6 -11 20 -3 13 -1 22 4 19 11 -7 50 36
45 50 -2 6 -11 12 -20 14 -12 3 -15 -1 -11 -13 6 -13 9 -14 16 -3 8 10 9 10 5
-2 -2 -8 -12 -15 -23 -15 -10 1 -25 -8 -32 -20 -8 -11 -11 -13 -9 -4 3 9 -1
16 -9 16 -8 0 -14 -5 -14 -10 0 -6 -9 -2 -20 8 -25 23 -25 35 0 35 11 0 20 -4
20 -10 0 -5 4 -10 8 -10 13 0 10 25 -5 38 -10 10 -13 10 -13 0 0 -9 -3 -9 -10
2 -6 9 -10 11 -10 3 0 -7 -7 -10 -15 -7 -8 4 -12 11 -8 18 4 6 -1 4 -12 -4
-16 -13 -16 -15 -2 -18 22 -4 19 -52 -3 -52 -8 0 -28 9 -45 20 -16 11 -26 20
-21 20 5 0 2 8 -7 18 -10 10 -14 22 -10 26 4 4 0 12 -10 17 -9 6 -14 15 -11
21 4 7 2 8 -4 4 -9 -5 -9 -13 -1 -27 12 -24 2 -41 -11 -18 -5 9 -25 16 -52 17
-35 2 -49 9 -73 36 -16 18 -37 36 -45 39 -10 3 -7 6 8 6 13 1 21 5 18 10 -3 5
-15 7 -26 4 -14 -4 -20 -14 -20 -35 0 -26 2 -29 15 -18 13 11 14 10 9 -4 -3
-9 -10 -16 -14 -16 -5 0 -10 -6 -12 -14 -2 -10 -9 -11 -25 -5 -21 8 -23 15
-23 86 0 60 3 74 12 65 16 -16 25 -15 32 4 5 13 2 15 -14 11 -11 -3 -20 -1
-20 4 0 5 6 9 13 9 8 0 9 3 1 8 -6 4 -14 14 -18 22 -3 8 -4 5 -2 -7 2 -13 0
-23 -5 -23 -5 0 -9 11 -9 25 0 32 12 32 36 0 10 -13 25 -27 33 -30 10 -4 8 2
-5 17 -12 13 -24 30 -28 38 -4 8 0 6 8 -4 9 -11 16 -16 16 -11 0 5 7 0 15 -11
8 -10 15 -14 15 -9 0 6 4 4 9 -3 7 -11 9 -11 14 1 4 11 0 15 -14 12 -16 -3
-18 1 -15 21 3 14 1 22 -5 19 -5 -4 -7 -12 -3 -18 3 -7 -1 -4 -10 7 -11 13
-22 17 -42 12 -20 -5 -25 -4 -21 7 7 19 -26 38 -44 25 -11 -8 -11 -9 3 -5 16
6 33 -25 20 -37 -13 -13 -31 -5 -26 11 2 10 -1 8 -7 -4 -12 -23 -39 -39 -39
-23 0 6 5 10 10 10 6 0 10 8 10 18 0 14 -2 15 -10 2 -11 -16 -11 -15 -15 17
-2 21 18 38 34 29 4 -3 7 6 7 19 0 13 -4 21 -8 19 -5 -3 -6 -10 -3 -15 3 -5
-1 -6 -9 -3 -9 3 -13 11 -9 17 4 6 1 7 -6 3 -7 -5 -10 -15 -7 -23 3 -8 1 -11
-4 -8 -5 3 -19 1 -31 -6 -12 -6 -19 -7 -15 -1 3 6 3 12 -1 15 -5 2 -3 2 4 1 7
-2 19 4 28 13 14 14 14 16 -2 29 -24 18 -34 17 -27 -1 4 -8 11 -12 17 -8 6 3
7 1 3 -5 -9 -15 -46 -16 -46 -1 0 5 5 7 10 4 6 -3 10 -1 10 4 0 20 -19 11 -35
-16 -13 -23 -15 -24 -10 -5 4 12 2 22 -3 22 -16 0 -23 -31 -11 -46 21 -25 -1
-15 -29 14 -15 15 -23 24 -18 20 18 -14 33 -8 44 17 7 15 8 25 2 25 -6 0 -10
-4 -10 -10 0 -5 -4 -10 -10 -10 -5 0 -6 7 -3 17 5 12 3 14 -7 8 -9 -6 -11 -4
-6 4 5 7 0 18 -10 27 -11 8 -14 13 -9 12 6 -2 10 2 11 7 1 9 -35 8 -45 -1 -2
-2 6 -13 19 -24 15 -13 18 -20 9 -20 -11 0 -11 -2 1 -11 12 -9 12 -10 -3 -5
-10 3 -23 6 -28 6 -6 0 -7 5 -4 10 4 6 12 8 18 4 7 -3 3 2 -8 11 -18 14 -20
14 -27 -2 -3 -10 -7 -13 -7 -6 -1 7 -7 10 -15 7 -8 -3 -17 0 -21 5 -3 6 -11 8
-17 5 -6 -4 -5 2 2 15 9 18 30 21 30 5 0 -3 -4 -2 -10 1 -5 3 -10 2 -10 -3 0
-18 28 -21 47 -5 16 13 16 14 1 9 -10 -3 -17 0 -15 6 1 6 -10 12 -24 13 -37 3
-48 12 -45 40 2 13 -1 22 -5 19 -5 -3 -9 0 -9 6 0 6 -10 2 -22 -10 -26 -24
-27 -24 -53 -4 -19 16 -19 16 8 12 27 -5 38 6 15 15 -19 7 -50 -12 -42 -26 4
-7 -2 -4 -13 6 -22 19 -44 24 -25 5 15 -15 16 -55 1 -64 -6 -4 -10 1 -8 12 1
11 -2 30 -8 43 l-10 25 -6 -24 c-5 -20 -8 -21 -21 -11 -10 9 -14 23 -10 40 5
24 4 24 -9 9 -8 -10 -17 -15 -20 -11 -4 3 -7 1 -7 -5 0 -7 6 -12 13 -12 6 0 4
-5 -5 -11 -12 -7 -24 -7 -35 0 -10 6 -12 11 -5 11 6 0 12 5 12 11 0 5 -4 7
-10 4 -5 -3 -10 2 -10 13 0 30 -12 34 -37 10 -17 -16 -23 -18 -23 -7 0 8 3 19
8 25 4 5 0 2 -9 -7 -15 -16 -18 -16 -43 7 -32 30 -66 39 -66 18 0 -8 -9 -14
-20 -14 -20 0 -28 -28 -13 -44 4 -3 8 -17 9 -29 2 -12 0 -16 -3 -9 -4 10 -10
10 -29 -3 -20 -13 -23 -13 -18 0 4 8 12 15 19 15 8 0 17 5 21 11 5 8 -3 10
-25 7 -17 -2 -31 -1 -31 4 0 5 -9 4 -19 -1 -15 -9 -20 -7 -24 10 -3 12 -10 18
-15 15 -5 -3 -14 6 -20 19 -7 15 -8 25 -2 25 6 0 10 -5 10 -11 0 -5 4 -8 9 -5
5 4 12 0 14 -6 3 -8 6 -6 6 5 1 9 -6 17 -14 17 -12 0 -13 3 -3 19 6 10 18 17
25 14 8 -3 11 0 8 8 -3 8 -16 14 -29 14 -19 0 -22 -3 -14 -13 20 -23 -7 -37
-33 -18 -13 9 -26 16 -29 16 -11 0 -7 -55 4 -62 8 -5 7 -8 -1 -8 -7 0 -10 -7
-7 -15 4 -9 0 -15 -7 -15 -9 0 -10 -3 -3 -8 6 -4 14 -16 17 -27 6 -17 4 -16
-11 4 -12 15 -24 21 -32 16 -7 -4 -16 -2 -21 6 -6 11 -11 11 -21 1 -6 -6 -17
-12 -22 -12 -6 0 -5 4 2 9 10 6 10 10 -3 21 -11 9 -15 9 -15 1 0 -7 -4 -10 -8
-7 -5 3 -8 19 -7 36 1 23 -2 30 -12 26 -11 -5 -13 0 -8 17 4 13 3 17 -2 10 -5
-7 -14 -9 -23 -3 -10 6 -22 -1 -41 -23 -27 -31 -28 -31 -49 -12 -11 10 -18 25
-15 33 4 12 3 13 -10 2 -8 -7 -15 -8 -15 -2 0 5 6 15 14 21 12 10 17 8 27 -11
7 -13 12 -24 11 -25 -1 -2 0 -3 3 -3 3 0 9 0 15 0 5 0 7 7 4 15 -4 8 -10 13
-15 10 -8 -6 -6 18 6 48 6 13 3 16 -9 11 -10 -4 -15 -13 -12 -20 4 -10 -1 -13
-17 -10 -12 2 -21 9 -19 16 1 7 -2 8 -9 4 -8 -5 -10 -2 -6 8 3 9 0 21 -6 28
-9 10 -9 11 2 5 10 -6 12 -2 6 14 -4 13 -2 21 5 21 6 0 8 -4 5 -10 -3 -5 -1
-10 5 -10 6 0 8 -4 5 -10 -3 -5 -2 -10 4 -10 5 0 13 5 16 10 3 6 1 10 -6 10
-7 0 -5 8 6 20 11 12 14 20 7 21 -7 1 -18 2 -24 3 -7 1 -20 -3 -28 -8 -12 -9
-13 -8 -3 4 14 18 12 42 -5 63 -10 12 -10 16 0 21 7 3 4 4 -7 3 -11 -1 -26 -9
-33 -17 -11 -13 -12 -12 -7 8 5 16 2 22 -10 22 -12 0 -13 4 -6 18 6 12 5 23
-6 37 -14 19 -14 19 -8 -7 4 -15 4 -31 1 -37 -11 -16 -36 -1 -37 23 -1 19 -2
19 -10 -4 -8 -23 -8 -22 -6 7 2 18 0 30 -5 27 -4 -3 -8 1 -9 8 0 7 -4 4 -8 -7
-5 -11 -5 -22 -1 -25 3 -3 9 -13 13 -23 4 -10 11 -15 17 -12 6 3 13 0 16 -8 3
-9 14 -12 32 -9 23 4 25 3 15 -9 -10 -12 -8 -18 7 -32 11 -9 30 -17 42 -17 16
0 19 -3 11 -11 -8 -8 -17 -8 -32 0 -24 13 -25 12 -11 -25 10 -25 9 -26 -6 -13
-9 8 -19 13 -21 12 -1 -2 -9 -3 -15 -3 -8 0 -6 5 4 10 13 8 15 16 8 41 -13 43
-24 52 -17 13 5 -28 3 -31 -16 -29 -34 4 -47 -18 -37 -60 1 -5 2 -17 1 -27 -1
-9 3 -20 10 -24 8 -5 4 -13 -12 -26 -14 -10 -17 -16 -7 -12 10 3 33 -5 54 -20
21 -14 40 -23 43 -19 3 3 0 8 -6 10 -7 3 -13 9 -13 14 0 4 7 5 17 2 11 -4 14
-3 9 5 -4 7 -2 12 3 12 6 0 11 -4 11 -10 0 -5 5 -10 10 -10 21 0 9 18 -20 30
-30 12 -41 30 -18 30 6 0 9 3 5 6 -6 7 3 18 38 44 18 15 19 14 2 -9 -11 -17
-13 -29 -7 -41 5 -10 6 -20 3 -24 -3 -3 1 -6 10 -6 9 0 19 -5 23 -12 4 -6 3
-8 -4 -5 -6 5 -8 -1 -5 -14 5 -18 3 -20 -15 -15 -12 4 -23 2 -28 -5 -4 -7 -3
-9 2 -6 6 3 16 2 22 -2 10 -6 9 -11 -3 -21 -11 -10 -15 -10 -15 0 0 7 -7 10
-16 6 -8 -3 -22 1 -31 10 -8 8 -17 13 -20 10 -6 -6 16 -46 25 -45 24 4 62 -2
62 -10 0 -6 -10 -8 -22 -6 -22 4 -22 3 -4 -10 18 -13 15 -35 -5 -35 -6 0 -7 5
-4 10 3 6 -6 15 -20 20 -14 5 -23 14 -20 20 3 5 -3 10 -14 10 -12 0 -20 6 -19
13 2 6 -3 11 -9 10 -8 -2 -11 7 -9 25 2 15 1 21 -1 14 -3 -7 -9 -9 -14 -6 -6
3 -9 -2 -7 -11 2 -10 -3 -20 -11 -23 -10 -3 -12 1 -9 16 4 15 2 19 -8 15 -10
-4 -12 0 -8 11 3 9 9 14 13 12 4 -3 8 7 9 22 1 15 7 29 12 30 14 5 12 49 -2
55 -10 4 -10 6 0 6 8 1 10 9 6 27 -5 19 -4 25 5 20 6 -4 11 -2 11 4 0 6 -10 8
-26 4 -19 -5 -25 -4 -20 5 4 6 1 11 -8 11 -19 0 -30 -17 -16 -25 6 -4 7 -11 4
-17 -4 -6 1 -8 15 -3 25 8 28 -7 4 -26 -11 -10 -14 -10 -9 -1 4 6 2 12 -3 12
-6 0 -11 -5 -11 -11 0 -5 -5 -7 -11 -3 -6 3 -7 9 -2 13 11 7 11 27 0 38 -11
10 -57 12 -51 1 3 -4 -1 -9 -8 -9 -92 -8 -94 -8 -80 -17 7 -5 30 -7 52 -5 22
2 40 -1 40 -6 0 -5 3 -18 6 -28 6 -16 5 -16 -9 2 -9 11 -17 16 -17 11 0 -5 -7
-3 -15 4 -12 10 -19 10 -27 2 -9 -9 -8 -12 5 -12 9 0 17 -4 17 -9 0 -4 -11 -6
-25 -3 -14 2 -23 8 -20 12 8 13 -23 33 -40 26 -9 -3 -13 -2 -10 4 3 6 1 10 -5
10 -6 0 -8 5 -4 11 4 8 9 7 14 -2 7 -10 15 -9 42 2 18 7 38 13 45 11 6 -1 14
2 18 8 3 5 15 10 26 10 10 0 24 9 31 20 7 11 16 20 21 20 4 0 3 -9 -3 -20 -12
-22 -4 -25 20 -10 12 8 12 10 1 10 -21 0 -4 13 21 17 28 4 32 9 25 28 -4 8
-17 14 -29 14 l-23 -2 23 -4 c12 -2 22 -9 22 -15 0 -5 -6 -8 -14 -5 -7 3 -18
1 -23 -4 -7 -7 -12 -2 -15 15 -4 18 -1 26 8 26 8 0 14 5 14 10 0 7 -6 7 -19 0
-13 -7 -18 -17 -14 -32 3 -14 1 -18 -4 -12 -4 7 -16 13 -26 15 -10 2 -17 9
-17 14 1 6 6 9 11 8 4 -2 5 5 2 14 -5 12 -3 14 7 8 9 -5 11 -4 6 3 -10 17 -26
15 -26 -4 0 -9 -5 -12 -12 -8 -6 4 -8 3 -4 -4 3 -5 0 -13 -6 -15 -10 -4 -10
-6 0 -6 7 -1 10 -6 6 -13 -4 -6 -3 -9 2 -6 15 8 43 -28 33 -43 -7 -11 -10 -9
-15 9 -4 12 -11 22 -16 22 -5 0 -6 -6 -3 -12 4 -7 0 -5 -8 4 -8 10 -18 14 -22
10 -5 -4 -5 1 -2 11 4 9 2 17 -4 17 -6 0 -9 -9 -6 -19 2 -10 1 -25 -4 -32 -7
-11 -9 -10 -9 4 0 10 -4 15 -10 12 -14 -9 -12 9 3 24 10 10 8 11 -8 6 -20 -7
-20 -7 0 9 11 9 24 15 30 13 5 -3 10 11 11 29 1 40 -3 43 -12 9z m32 -110 c14
-13 14 -15 -1 -15 -9 0 -13 -4 -10 -10 3 -5 2 -10 -3 -10 -6 0 -13 7 -16 16
-4 10 -2 13 6 8 8 -5 9 -2 5 9 -8 21 0 22 19 2z m304 -31 c0 -2 -7 -4 -15 -4
-8 0 -15 4 -15 10 0 5 7 7 15 4 8 -4 15 -8 15 -10z m-432 -12 c2 -7 -3 -12
-10 -12 -8 0 -15 7 -15 15 0 18 19 15 25 -3z m183 -9 c-11 -5 -11 -7 0 -14 11
-7 10 -9 -3 -9 -18 0 -23 11 -11 23 3 4 11 7 17 6 6 0 5 -3 -3 -6z m135 -24
c3 -6 1 -16 -6 -22 -10 -9 -11 -9 -6 1 4 6 2 12 -3 12 -6 0 -11 5 -11 10 0 13
17 13 26 -1z m-260 -22 c4 -4 0 -7 -9 -7 -9 0 -18 4 -21 9 -7 10 20 9 30 -2z
m125 -4 c13 -16 12 -17 -3 -4 -10 7 -18 15 -18 17 0 8 8 3 21 -13z m155 -39
c-9 -6 -13 -14 -9 -16 4 -3 1 -3 -7 -1 -10 2 -8 -2 4 -12 11 -8 24 -15 28 -15
5 0 3 -6 -4 -14 -20 -22 -43 -2 -43 37 0 20 3 33 7 31 4 -2 13 2 20 10 8 9 14
10 17 3 2 -5 -4 -16 -13 -23z m-83 13 c2 -6 -2 -18 -9 -25 -9 -8 -14 -9 -14
-2 0 6 -4 9 -8 6 -5 -3 -9 1 -9 9 0 12 3 12 16 2 12 -10 14 -9 8 6 -3 9 -2 17
2 17 5 0 11 -6 14 -13z m-153 -9 c0 -9 3 -8 10 2 7 12 13 10 34 -13 14 -15 22
-27 18 -27 -4 0 2 -7 13 -16 16 -12 17 -18 8 -33 -6 -10 -8 -23 -3 -30 5 -9
10 -10 14 -2 10 15 33 14 33 -2 0 -20 -47 -14 -59 7 -5 9 -7 24 -4 32 3 9 1
12 -4 9 -9 -6 -14 7 -11 27 0 4 -6 5 -15 1 -9 -3 -12 -9 -7 -12 14 -9 24 -41
13 -41 -6 0 -10 7 -10 16 0 8 -5 12 -10 9 -6 -4 -10 -3 -9 2 3 19 -2 34 -10
29 -5 -4 -12 0 -15 6 -3 9 -9 7 -20 -6 -9 -11 -16 -15 -16 -9 0 7 5 15 10 18
8 5 8 11 0 20 -8 10 -7 14 2 18 23 10 38 7 38 -5z m70 -8 c0 -5 -2 -10 -4 -10
-3 0 -8 5 -11 10 -3 6 -1 10 4 10 6 0 11 -4 11 -10z m43 -36 c-2 -7 -14 -9
-26 -6 -20 5 -20 6 -1 13 10 4 13 8 6 8 -7 1 -10 5 -7 11 8 13 34 -11 28 -26z
m-170 7 c-3 -11 -11 -22 -19 -25 -11 -4 -11 0 -2 19 13 30 28 33 21 6z m197
-11 c0 -5 -5 -10 -11 -10 -5 0 -7 5 -4 10 3 6 8 10 11 10 2 0 4 -4 4 -10z
m-97 -63 c4 3 7 -1 7 -9 0 -11 -6 -14 -20 -11 -11 3 -17 9 -14 14 3 5 0 9 -5
9 -6 0 -11 5 -11 12 0 6 7 4 18 -5 10 -10 22 -14 25 -10z m422 0 c-13 -10 -15
-16 -6 -21 6 -4 9 -12 5 -17 -4 -6 -11 -6 -20 2 -17 14 -1 49 23 49 15 0 15
-2 -2 -13z m205 2 c0 -5 4 -8 8 -5 5 3 9 -1 9 -9 0 -16 -7 -19 -22 -7 -14 10
-17 32 -5 32 6 0 10 -5 10 -11z m-306 -14 c8 -9 13 -22 10 -30 -8 -20 -22 -19
-20 1 0 9 -6 19 -14 21 -10 3 -11 2 -4 -4 9 -6 7 -12 -4 -23 -14 -13 -15 -12
-9 3 4 10 2 17 -5 17 -7 0 -6 5 2 15 16 19 25 19 44 0z m138 -13 c9 -9 8 -16
-4 -29 -8 -10 -18 -25 -21 -33 -4 -12 -6 -11 -6 3 -1 10 -5 16 -10 13 -5 -3
-14 1 -21 9 -9 11 -8 14 7 14 54 2 57 3 32 22 -19 14 -20 17 -6 15 9 -1 22 -7
29 -14z m404 6 c4 -6 3 -8 -3 -5 -6 4 -16 0 -23 -8 -11 -13 -10 -14 4 -9 9 3
16 1 16 -5 0 -6 5 -11 11 -11 5 0 7 5 4 10 -12 19 20 9 50 -15 16 -13 26 -28
21 -32 -4 -4 -14 1 -22 12 -13 17 -16 18 -25 5 -9 -12 -10 -10 -6 8 4 17 2 21
-6 14 -7 -5 -24 -12 -38 -15 -20 -5 -26 -3 -26 11 0 9 7 25 15 35 18 20 19 20
28 5z m-716 -25 c0 -20 -24 -11 -28 10 -2 12 1 15 12 11 9 -3 16 -13 16 -21z
m-105 -21 c-3 -10 0 -12 10 -9 8 4 17 2 20 -2 8 -13 -21 -21 -33 -9 -6 6 -8
17 -5 24 3 8 0 14 -7 14 -6 0 -9 -4 -6 -8 2 -4 2 -13 -2 -19 -5 -7 -11 -3 -18
12 -9 19 -9 22 2 18 8 -3 14 0 14 7 0 10 4 10 15 0 9 -7 13 -20 10 -28z m61
29 c-8 -12 -46 -21 -46 -11 0 5 10 11 23 13 12 2 23 5 25 6 2 0 1 -3 -2 -8z
m265 -24 c-8 -8 -14 -8 -23 1 -6 6 -8 15 -4 19 4 4 11 1 16 -7 8 -12 10 -11
11 5 0 12 3 15 6 7 3 -8 0 -19 -6 -25z m284 14 c-3 -5 4 -12 15 -16 11 -3 20
-11 20 -17 0 -6 -6 -6 -15 2 -10 9 -15 9 -15 1 0 -6 -5 -11 -10 -11 -6 0 -10
8 -8 18 2 10 -2 16 -10 14 -8 -1 -11 2 -7 8 3 5 13 10 21 10 8 0 13 -4 9 -9z
m331 -23 c-1 -18 3 -37 8 -41 7 -5 5 -7 -4 -4 -8 2 -14 14 -14 25 1 12 -3 22
-9 22 -5 0 -4 7 3 15 17 20 17 20 16 -17z m-812 -26 c-27 -14 -54 -3 -54 22 0
6 5 3 11 -6 5 -10 15 -18 21 -18 6 0 5 7 -3 18 -12 15 -12 16 2 5 19 -15 30
-7 22 15 -4 12 -1 11 10 -3 14 -19 14 -21 -9 -33z m-246 -7 c-12 -26 -30 -35
-25 -12 1 6 -5 11 -14 9 -9 -1 -19 5 -23 13 -3 9 -2 14 3 10 5 -3 11 -2 14 2
2 5 2 2 0 -5 -1 -7 2 -10 7 -7 6 3 10 13 10 21 0 12 4 12 20 4 17 -9 18 -14 8
-35z m429 22 c2 -3 -3 -7 -11 -10 -8 -3 -20 0 -26 8 -10 12 -8 13 10 10 13 -2
25 -6 27 -8z m110 -12 c-15 -16 -19 -13 -11 9 3 9 10 13 15 10 5 -3 3 -11 -4
-19z m163 10 c0 -8 -2 -15 -4 -15 -2 0 -6 7 -10 15 -3 8 -1 15 4 15 6 0 10 -7
10 -15z m240 -5 c0 -5 -2 -10 -4 -10 -3 0 -8 5 -11 10 -3 6 -1 10 4 10 6 0 11
-4 11 -10z m-454 -18 c1 -7 0 -8 -3 -2 -2 5 -9 8 -13 5 -5 -3 -12 0 -15 6 -5
7 -1 10 10 7 10 -1 20 -9 21 -16z m434 -3 c0 -6 -4 -7 -10 -4 -5 3 -10 11 -10
16 0 6 5 7 10 4 6 -3 10 -11 10 -16z m-833 5 c-3 -3 -12 -4 -19 -1 -8 3 -5 6
6 6 11 1 17 -2 13 -5z m713 0 c0 -8 -19 -13 -24 -6 -3 5 1 9 9 9 8 0 15 -2 15
-3z m170 -9 c-7 -9 -15 -13 -17 -11 -7 7 7 26 19 26 6 0 6 -6 -2 -15z m387
-42 c9 -7 14 -16 10 -19 -3 -3 -17 6 -31 21 -22 23 -24 31 -14 43 11 13 13 12
16 -9 2 -13 11 -30 19 -36z m-1237 32 c4 3 10 -2 14 -10 3 -8 2 -15 -2 -15
-12 0 -32 23 -31 35 0 5 3 4 6 -3 2 -6 8 -10 13 -7z m192 8 c-12 -2 -20 -8
-17 -13 3 -4 -2 -13 -9 -19 -11 -9 -16 -9 -22 0 -4 7 -3 9 4 5 6 -3 13 -2 17
4 3 5 1 10 -5 10 -6 0 -8 5 -5 10 3 6 18 9 33 9 24 -2 24 -2 4 -6z m58 -3 c0
-5 -2 -10 -4 -10 -3 0 -8 5 -11 10 -3 6 -1 10 4 10 6 0 11 -4 11 -10z m890 -5
c-7 -8 -17 -12 -22 -9 -6 4 -5 10 3 15 22 14 33 10 19 -6z m-1307 -10 c-3 -9
-8 -14 -10 -11 -3 3 -2 9 2 15 9 16 15 13 8 -4z m94 0 c0 -8 -4 -12 -9 -9 -5
3 -6 10 -3 15 9 13 12 11 12 -6z m1126 7 c19 10 20 9 10 -4 -7 -8 -9 -18 -5
-23 4 -4 -3 -2 -15 4 -13 6 -23 17 -22 24 0 9 2 9 6 0 3 -10 10 -10 26 -1z
m-983 -6 c0 -3 -4 -8 -10 -11 -5 -3 -10 -1 -10 4 0 6 5 11 10 11 6 0 10 -2 10
-4z m557 -28 c-3 -7 -5 -2 -5 12 0 14 2 19 5 13 2 -7 2 -19 0 -25z m303 16 c0
-8 -19 -13 -24 -6 -3 5 1 9 9 9 8 0 15 -2 15 -3z m-793 -19 c4 -4 3 -5 -4 -2
-6 4 -13 2 -15 -5 -3 -8 -6 -6 -10 4 -7 17 15 19 29 3z m1003 0 c7 -8 9 -15 6
-15 -4 0 -14 7 -22 15 -9 8 -11 15 -6 15 5 0 15 -7 22 -15z m80 -5 c0 -5 -4
-10 -10 -10 -5 0 -10 5 -10 10 0 6 5 10 10 10 6 0 10 -4 10 -10z m-1335 -20
c10 -11 16 -20 13 -20 -3 0 -13 9 -23 20 -10 11 -16 20 -13 20 3 0 13 -9 23
-20z m1748 -195 c-3 -9 -8 -14 -10 -11 -3 3 -2 9 2 15 9 16 15 13 8 -4z
m-1417 -22 c-3 -10 -31 -76 -61 -148 l-54 -130 -1 148 0 147 61 0 c53 0 60 -2
55 -17z m214 -125 c0 -78 -2 -139 -4 -137 -7 8 -116 266 -116 276 0 2 27 3 60
3 l60 0 0 -142z m1195 115 c17 -20 21 -32 14 -45 -5 -9 -9 -47 -9 -83 0 -63
-1 -66 -22 -63 -22 3 -23 8 -24 80 0 43 -3 81 -7 84 -4 4 -7 1 -7 -8 0 -10 -9
-14 -27 -13 -37 2 -53 -4 -53 -21 0 -9 12 -14 35 -14 28 0 35 -4 35 -20 0 -16
-7 -20 -34 -20 -32 0 -35 -3 -38 -32 -2 -26 -8 -34 -26 -36 -22 -3 -23 -2 -20
90 l3 93 43 3 c23 2 42 8 42 14 0 6 9 3 20 -7 20 -18 21 -18 38 0 16 18 16 18
0 6 -11 -8 -18 -9 -18 -3 0 8 11 17 28 21 2 1 14 -11 27 -26z m-747 -90 l-3
-98 -39 -3 c-72 -6 -115 71 -64 118 12 11 32 20 45 20 19 0 23 5 23 30 0 24 4
30 20 30 20 0 21 -5 18 -97z m234 70 c2 -15 10 -27 19 -29 62 -8 86 -41 68
-93 -12 -33 -52 -54 -95 -49 l-29 3 -3 98 c-3 91 -1 97 17 97 14 0 21 -8 23
-27z m-401 -74 c15 -41 28 -80 28 -86 1 -21 -37 -15 -44 7 -5 15 -15 20 -40
20 -25 0 -35 -5 -40 -20 -6 -19 -45 -29 -45 -12 0 12 53 156 62 169 21 27 51
-3 79 -78z m323 19 c50 -71 -44 -158 -104 -98 -24 24 -26 77 -3 102 24 27 87
24 107 -4z m306 3 c5 -11 10 -29 10 -40 0 -18 -6 -21 -40 -21 -22 0 -40 -4
-40 -10 0 -5 16 -10 35 -10 28 0 35 -4 35 -20 0 -16 -7 -20 -37 -20 -44 0 -56
6 -72 37 -16 32 -14 60 9 83 27 27 85 27 100 1z m-1036 -97 c20 -47 36 -90 36
-95 0 -5 -11 -9 -24 -9 -18 0 -27 8 -35 30 -8 25 -15 30 -42 30 -21 0 -29 4
-26 13 30 73 50 117 52 117 2 0 19 -39 39 -86z m1531 -69 c0 -12 -7 -20 -18
-21 -12 -1 -13 -1 -2 3 20 6 19 20 -2 33 -16 10 -16 10 2 8 12 -2 20 -11 20
-23z m99 -17 c-3 -5 0 -15 6 -23 9 -11 8 -14 -9 -12 -11 1 -23 7 -26 15 -2 7
0 10 5 7 7 -4 9 3 6 20 -4 22 -3 25 9 15 8 -7 12 -16 9 -22z m-44 2 c-11 -7
-11 -11 -1 -24 8 -9 10 -16 5 -16 -4 0 1 -6 12 -14 16 -13 17 -17 5 -28 -12
-11 -13 -11 -6 0 4 9 -1 19 -14 28 -12 9 -19 19 -16 24 3 5 0 12 -5 15 -7 5
-5 12 7 20 10 7 20 11 23 9 2 -3 -2 -9 -10 -14z m-50 -30 c-8 -5 -22 -9 -30
-9 -10 0 -8 3 5 9 27 12 43 12 25 0z m24 -56 c3 -8 2 -12 -4 -9 -6 3 -10 10
-10 16 0 14 7 11 14 -7z m7 -47 c-10 -9 -11 -8 -5 6 3 10 9 15 12 12 3 -3 0
-11 -7 -18z m-1738 -5 c-4 -16 3 -18 54 -17 56 0 58 -1 64 -30 4 -16 7 -25 8
-18 0 6 10 15 21 18 11 4 18 10 15 15 -3 5 -13 6 -22 3 -11 -4 -14 -3 -9 5 4
7 18 12 32 12 19 0 24 -5 24 -25 0 -14 4 -25 9 -25 4 0 6 11 3 25 -4 23 -1 25
31 25 31 0 34 -3 30 -21 -3 -11 -15 -25 -27 -29 -19 -8 -18 -9 7 -9 22 -1 28
-5 25 -18 -2 -13 -13 -18 -38 -18 -23 0 -34 4 -33 13 2 9 -26 12 -116 12
l-118 0 7 39 c4 25 3 44 -3 50 -8 8 -3 11 15 11 20 0 25 -4 21 -18z m807 -2
c0 -5 13 -10 29 -10 33 0 35 -2 45 -42 6 -28 6 -28 -43 -28 -27 0 -52 4 -55 9
-9 13 -57 -12 -51 -26 2 -8 -4 -13 -15 -13 -13 0 -18 5 -14 15 5 12 -2 15 -29
15 -42 0 -56 15 -27 30 23 12 27 32 5 24 -8 -4 -15 -2 -15 4 0 5 32 10 72 10
41 1 74 5 76 11 5 14 22 14 22 1z m1379 -27 c27 7 27 -4 0 -21 -12 -8 -18 -9
-14 -3 3 6 2 11 -4 11 -5 0 -12 -6 -14 -12 -4 -8 -6 -7 -6 3 -1 9 -9 20 -18
23 -15 6 -15 9 -3 16 9 6 18 3 25 -7 8 -10 20 -14 34 -10z m-1778 -21 l7 -33
-72 3 c-59 3 -71 6 -74 21 -8 39 4 46 70 44 62 -2 62 -2 69 -35z m104 28 c4
-6 13 -5 25 3 24 15 55 -1 55 -28 0 -28 -31 -43 -56 -27 -12 8 -18 9 -14 3 4
-7 -9 -11 -37 -11 -42 0 -43 1 -41 32 1 18 2 34 2 36 3 7 61 0 66 -8z m475 3
c1 -19 18 -33 33 -27 9 3 15 10 12 15 -3 4 -13 5 -22 2 -10 -4 -14 -2 -10 4 8
12 164 17 170 5 2 -4 7 -19 11 -34 6 -26 4 -28 -28 -28 -42 0 -54 15 -26 32
27 17 25 24 -7 23 -24 0 -28 -4 -28 -28 1 -26 -1 -27 -47 -27 -31 0 -48 4 -49
13 0 10 -2 10 -6 0 -2 -7 -14 -13 -25 -13 -14 0 -18 -5 -14 -15 3 -10 -1 -15
-12 -15 -14 0 -17 9 -15 47 1 27 2 49 2 51 2 6 61 1 61 -5z m300 -17 c0 -16 7
-25 23 -29 20 -5 20 -5 5 7 -10 7 -18 20 -18 29 0 14 10 16 56 14 63 -2 89
-22 65 -51 -10 -12 -32 -14 -104 -13 l-91 2 -7 33 c-6 32 -6 32 32 32 34 0 39
-3 39 -24z m972 -9 c-12 -13 -19 -27 -15 -31 8 -7 9 -11 12 -37 0 -5 6 -7 11
-4 6 3 10 -4 10 -16 0 -22 0 -22 15 -3 12 16 14 17 15 3 0 -30 -27 -28 -49 1
-13 18 -27 27 -36 24 -8 -4 -15 -1 -15 6 0 6 -5 8 -10 5 -7 -4 -7 -12 0 -25
14 -26 13 -35 -3 -21 -8 6 -17 9 -21 6 -3 -3 -2 0 3 6 7 8 3 17 -11 29 -15 12
-18 19 -9 24 7 4 10 2 9 -5 -2 -6 3 -14 10 -16 6 -3 12 3 12 12 0 10 4 13 13
8 6 -4 20 -9 31 -10 15 -3 16 -1 7 11 -10 12 -9 19 6 34 10 11 22 21 27 21 5
1 0 -9 -12 -22z m176 -24 c1 -27 1 -27 -13 -9 -14 18 -12 25 10 36 0 0 2 -12
3 -27z m-338 3 c0 -8 -5 -18 -10 -21 -8 -5 -7 -12 1 -23 12 -15 11 -16 -4 -2
-10 10 -14 23 -11 38 7 24 24 30 24 8z m258 -19 c8 -9 4 -13 -19 -13 -32 -2
-40 12 -11 19 9 3 18 5 18 6 1 0 6 -5 12 -12z m-298 -13 c0 -8 -19 -13 -24 -6
-3 5 1 9 9 9 8 0 15 -2 15 -3z m83 -13 c-2 -6 2 -11 7 -11 6 0 10 -8 10 -17 0
-14 -2 -15 -9 -4 -5 7 -14 10 -20 7 -6 -4 -9 -11 -6 -16 3 -4 -2 -11 -11 -14
-13 -5 -12 0 4 28 12 19 16 37 11 40 -5 2 -4 3 3 2 7 -2 12 -9 11 -15z m294
-10 c7 -9 13 -12 13 -7 0 6 7 1 15 -10 14 -18 14 -18 10 4 -4 20 -2 22 10 12
8 -7 15 -16 15 -20 0 -13 -33 -22 -39 -11 -4 6 -22 13 -41 16 -19 3 -31 3 -27
-1 4 -4 0 -18 -8 -31 -17 -25 -8 -31 15 -10 12 10 12 9 1 -5 -17 -23 -28 -23
-40 0 -19 35 -21 72 -5 72 12 0 14 -7 9 -32 -4 -19 -4 -29 1 -25 5 5 10 13 10
18 1 5 2 14 3 19 0 6 11 10 24 11 l22 0 -22 9 c-13 5 -23 12 -23 15 0 11 45
-8 57 -24z m-383 -16 c-4 -8 -1 -15 7 -15 7 0 10 -2 7 -5 -3 -3 -13 -3 -22 1
-13 5 -14 9 -5 20 15 18 20 18 13 -1z m181 -15 c3 -5 1 -10 -4 -10 -6 0 -11 5
-11 10 0 6 2 10 4 10 3 0 8 -4 11 -10z m-50 -10 c-3 -5 -1 -10 6 -10 7 0 10
-3 6 -6 -9 -9 -28 6 -22 17 4 5 8 9 11 9 3 0 2 -4 -1 -10z m145 0 c0 -5 -5
-10 -11 -10 -5 0 -7 5 -4 10 3 6 8 10 11 10 2 0 4 -4 4 -10z m134 -39 c8 -11
8 -13 -1 -8 -6 4 -13 1 -16 -5 -2 -8 -8 -9 -13 -4 -5 5 -4 10 2 13 7 2 10 14
8 26 -2 12 -1 15 2 7 4 -8 12 -21 18 -29z m-174 23 c0 -8 -19 -13 -24 -6 -3 5
1 9 9 9 8 0 15 -2 15 -3z m-453 -19 c0 -8 -4 -12 -9 -9 -4 3 -8 9 -8 15 0 5 4
9 8 9 5 0 9 -7 9 -15z m196 9 c-7 -3 -9 -12 -6 -20 3 -8 0 -14 -7 -14 -6 0 -8
-5 -4 -12 4 -7 3 -8 -5 -4 -6 4 -10 10 -8 14 2 4 7 15 10 25 4 9 12 17 19 16
9 0 10 -2 1 -5z m227 -15 c0 -14 -17 -10 -23 5 -4 10 -1 13 9 9 7 -3 14 -9 14
-14z m-152 -10 c10 -16 10 -24 1 -35 -7 -9 -8 -14 -1 -14 15 0 27 22 24 43 -2
11 3 17 15 16 10 0 13 -3 6 -5 -7 -3 -10 -11 -7 -18 3 -7 -9 -24 -26 -39 -16
-15 -30 -22 -30 -16 0 5 -5 7 -10 4 -6 -4 -8 -11 -5 -16 4 -5 1 -9 -4 -9 -6 0
-11 5 -11 11 0 6 -6 17 -14 25 -13 12 -16 11 -21 -7 -4 -11 -9 -18 -11 -16 -8
8 18 56 35 62 13 5 13 4 4 -6 -9 -9 -10 -16 -2 -26 14 -16 33 -17 23 -1 -5 7
-3 8 6 3 10 -6 12 -4 7 8 -4 11 -2 14 9 10 19 -7 18 6 -3 29 -9 10 -12 18 -7
18 5 0 15 -9 22 -21z m390 9 c-2 -6 5 -14 16 -16 10 -2 16 0 12 6 -3 5 6 10
21 10 24 0 24 -1 7 -11 -25 -14 -95 -21 -74 -7 8 5 11 10 7 10 -5 0 -5 5 -2
10 8 14 16 13 13 -2z m432 -7 c26 -15 28 -20 16 -30 -12 -10 -16 -8 -21 7 -4
14 -12 19 -28 16 -21 -4 -21 -4 -2 6 19 9 19 10 1 7 -11 -1 -20 -10 -22 -20
-2 -13 2 -16 16 -12 23 7 30 -14 13 -45 -7 -14 -13 -22 -13 -18 0 3 -3 13 -6
22 -4 11 -1 16 11 16 9 0 14 4 10 10 -3 5 -11 7 -18 4 -14 -5 -39 -53 -32 -63
2 -4 -5 -8 -16 -8 -10 -1 -19 3 -19 8 0 6 5 7 10 4 6 -3 10 -1 10 4 0 21 2 26
12 39 6 7 8 16 4 19 -4 4 -11 1 -16 -7 -6 -8 -10 -11 -10 -7 0 15 44 66 57 66
7 1 26 -7 43 -18z m-646 -5 c-7 -18 17 -15 42 4 17 14 18 13 7 -1 -7 -9 -11
-18 -9 -20 3 -2 -9 -5 -25 -5 -27 -2 -38 13 -22 29 10 11 13 8 7 -7z m315 -19
c0 -9 -2 -8 -6 1 -2 6 -10 9 -15 6 -7 -4 -8 -2 -4 5 9 13 26 5 25 -12z m-335
-29 c-3 -5 -12 -1 -20 9 -20 26 -17 35 5 16 11 -9 18 -21 15 -25z m-44 22 c0
-5 -2 -10 -4 -10 -3 0 -8 5 -11 10 -3 6 -1 10 4 10 6 0 11 -4 11 -10z m206
-12 c3 -20 -13 -45 -23 -35 -4 5 -1 12 7 17 12 8 10 10 -7 10 -13 0 -23 4 -23
10 0 5 7 6 17 3 12 -5 14 -3 8 7 -5 8 -3 11 5 8 7 -2 14 -11 16 -20z m74 -19
c-14 -25 -17 -24 -14 4 3 30 3 29 14 22 7 -4 7 -13 0 -26z m117 12 c-1 -14 -5
-17 -13 -11 -6 6 -14 7 -17 3 -4 -3 -7 -1 -7 6 0 8 7 11 15 7 8 -3 15 -1 15 4
0 6 2 10 4 10 3 0 4 -9 3 -19z m73 -27 c0 -2 -5 -6 -10 -9 -6 -4 -9 -2 -8 3 2
6 -1 10 -6 10 -5 0 -13 6 -17 14 -16 25 -9 28 16 6 14 -12 25 -23 25 -24z m15
34 c5 4 5 1 1 -6 -6 -10 -11 -10 -22 -1 -8 6 -14 14 -14 16 0 3 6 0 13 -6 8
-6 18 -7 22 -3z m270 -15 c-17 -16 -37 -9 -29 11 3 8 14 12 24 9 17 -5 17 -7
5 -20z m-637 -2 c-7 -11 -16 -17 -20 -15 -15 10 -8 -10 12 -31 16 -17 17 -22
6 -22 -8 0 -13 4 -10 8 2 4 -8 17 -22 28 -15 12 -25 21 -23 22 2 0 12 2 23 4
10 2 23 8 29 14 17 17 18 13 5 -8z m122 9 c0 -5 -5 -10 -11 -10 -5 0 -7 5 -4
10 3 6 8 10 11 10 2 0 4 -4 4 -10z m298 -20 c-5 -33 3 -38 22 -15 11 13 15 13
21 3 5 -7 9 -17 9 -23 0 -5 -4 -4 -9 4 -8 12 -13 12 -24 3 -17 -15 -44 -7 -44
13 0 8 4 12 9 9 4 -3 8 0 8 5 0 6 -6 11 -12 11 -9 0 -8 4 2 10 22 14 23 13 18
-20z m39 24 c-3 -3 -12 -4 -19 -1 -8 3 -5 6 6 6 11 1 17 -2 13 -5z m26 -9 c4
-8 2 -17 -3 -20 -6 -4 -10 3 -10 14 0 25 6 27 13 6z m-632 -30 c5 4 9 1 9 -5
0 -6 -11 -8 -25 -6 -14 3 -31 -2 -39 -9 -13 -14 -26 -10 -26 7 0 5 5 6 10 3 6
-3 10 -1 10 5 0 6 4 9 9 5 6 -3 16 1 23 9 11 12 13 12 16 0 2 -8 8 -12 13 -9z
m39 21 c0 -3 -4 -8 -10 -11 -5 -3 -10 -1 -10 4 0 6 5 11 10 11 6 0 10 -2 10
-4z m155 -20 c0 -15 -4 -21 -9 -16 -5 5 -6 16 -3 24 9 22 12 20 12 -8z m629 6
c15 -18 15 -20 -6 -38 -12 -10 -18 -13 -14 -6 4 7 2 19 -4 27 -6 8 -9 19 -5
25 8 13 9 13 29 -8z m-470 -14 c-4 -6 -10 -5 -15 3 -7 12 -9 12 -9 0 0 -8 -3
-12 -6 -8 -10 10 6 26 21 21 8 -4 12 -11 9 -16z m394 -2 c-1 -14 -5 -23 -9
-20 -14 8 -21 -17 -9 -31 10 -11 10 -15 1 -15 -7 0 -9 -5 -5 -12 4 -7 3 -9 -2
-5 -11 11 -13 68 -2 90 13 25 28 21 26 -7z m-678 4 c8 -5 11 -10 5 -10 -5 0
-17 5 -25 10 -8 5 -10 10 -5 10 6 0 17 -5 25 -10z m301 -17 c-12 -20 -14 -14
-5 12 4 9 9 14 11 11 3 -2 0 -13 -6 -23z m404 17 c3 -5 1 -10 -4 -10 -6 0 -11
5 -11 10 0 6 2 10 4 10 3 0 8 -4 11 -10z m-945 -4 c0 -2 -8 -10 -17 -17 -16
-13 -17 -12 -4 4 13 16 21 21 21 13z m278 -21 c-3 -3 -9 2 -12 12 -6 14 -5 15
5 6 7 -7 10 -15 7 -18z m327 15 c4 -6 -1 -7 -11 -3 -13 5 -15 3 -9 -7 5 -9 4
-11 -4 -6 -6 4 -9 12 -6 17 8 12 22 12 30 -1z m31 1 c-3 -5 1 -11 9 -15 21 -8
19 -26 -2 -26 -14 0 -15 2 -5 9 11 7 10 9 -3 15 -14 5 -13 26 1 26 3 0 3 -4 0
-9z m-556 -47 c0 -7 -5 -16 -12 -20 -7 -4 -8 -3 -4 4 4 7 5 16 1 22 -8 13 -37
0 -32 -14 3 -6 -2 -17 -9 -24 -8 -7 -14 -9 -14 -3 0 5 -8 7 -19 4 -10 -3 -21
-1 -24 4 -4 6 7 9 23 8 19 -1 30 3 30 12 0 7 -3 12 -7 12 -5 -1 -17 -1 -28 0
-19 2 -19 2 -2 12 12 7 22 7 30 1 8 -7 18 -6 29 2 10 7 17 15 15 17 -1 2 4 -2
11 -10 6 -8 12 -20 12 -27z m337 17 l-10 -28 -34 19 c-18 11 -33 22 -33 25 0
2 4 1 10 -2 21 -13 49 -13 61 1 17 21 19 17 6 -15z m59 11 c-3 12 -1 15 10 11
11 -4 12 -8 3 -20 -7 -7 -18 -12 -25 -9 -8 3 -17 -2 -22 -11 -6 -11 -11 -12
-16 -4 -9 14 2 33 15 26 5 -4 9 2 9 11 0 16 1 16 16 -2 13 -15 15 -16 10 -2z
m-521 -2 c3 -5 -1 -10 -9 -10 -8 0 -18 5 -21 10 -3 6 1 10 9 10 8 0 18 -4 21
-10z m186 -10 c6 0 7 5 4 10 -3 6 5 10 18 10 20 0 25 -5 23 -25 0 -14 -6 -27
-12 -29 -7 -3 -9 5 -6 21 3 18 1 24 -7 19 -6 -4 -9 -11 -7 -15 3 -4 -7 -6 -22
-5 -35 2 -35 2 -20 18 7 8 15 10 16 5 2 -5 8 -9 13 -9z m568 -16 c-13 -7 -20
-13 -15 -14 5 0 3 -7 -4 -15 -14 -17 -30 -11 -30 11 0 8 4 13 9 10 4 -3 17 3
27 13 10 10 23 16 28 13 5 -3 -2 -11 -15 -18z m-799 -10 c0 -2 -9 0 -20 6 -11
6 -20 13 -20 16 0 2 9 0 20 -6 11 -6 20 -13 20 -16z m917 19 c-8 -7 11 -33 25
-33 5 0 6 5 2 12 -4 7 -3 8 5 4 8 -6 9 -12 2 -20 -6 -7 -8 -16 -4 -19 3 -4 1
-7 -5 -7 -7 0 -12 6 -12 14 0 25 -16 27 -43 6 -16 -13 -28 -16 -32 -10 -3 5 1
10 9 10 9 0 16 5 16 11 0 6 -7 8 -16 5 -15 -6 -15 -4 -3 10 8 10 15 12 17 5 5
-16 22 -13 22 4 0 8 5 15 12 15 6 0 8 -3 5 -7z m-597 -13 c0 -5 -8 -10 -17
-10 -15 0 -16 2 -3 10 19 12 20 12 20 0z m261 -37 c-17 -12 -35 -7 -25 8 3 5
10 6 16 3 7 -5 9 -2 5 8 -3 9 -3 19 1 23 3 3 9 -2 13 -12 4 -11 0 -23 -10 -30z
m-381 12 c14 -19 14 -19 -2 -6 -10 7 -18 18 -18 24 0 6 1 8 3 6 1 -2 9 -13 17
-24z m255 -5 c-3 -5 -11 -10 -16 -10 -6 0 -7 5 -4 10 3 6 11 10 16 10 6 0 7
-4 4 -10z m235 6 c0 -3 -4 -8 -10 -11 -5 -3 -10 -1 -10 4 0 6 5 11 10 11 6 0
10 -2 10 -4z"/>
<path d="M185 1320 c3 -5 8 -10 11 -10 2 0 4 5 4 10 0 6 -5 10 -11 10 -5 0 -7
-4 -4 -10z"/>
<path d="M120 1145 c0 -8 2 -15 4 -15 2 0 6 7 10 15 3 8 1 15 -4 15 -6 0 -10
-7 -10 -15z"/>
<path d="M1876 785 c-16 -12 -17 -15 -4 -15 9 0 18 7 22 15 7 18 6 18 -18 0z"/>
<path d="M1060 721 c-13 -26 -3 -51 21 -51 15 0 19 7 19 35 0 39 -22 48 -40
16z"/>
<path d="M1370 705 c0 -32 3 -36 23 -33 17 2 22 10 22 33 0 23 -5 31 -22 33
-20 3 -23 -1 -23 -33z"/>
<path d="M907 749 c-10 -35 -9 -39 8 -39 16 0 18 14 6 44 -7 18 -8 18 -14 -5z"/>
<path d="M1214 726 c-10 -26 1 -51 22 -54 26 -4 38 22 24 49 -13 22 -38 25
-46 5z"/>
<path d="M1530 730 c0 -5 9 -10 20 -10 11 0 20 5 20 10 0 6 -9 10 -20 10 -11
0 -20 -4 -20 -10z"/>
<path d="M610 395 c0 -8 5 -15 10 -15 6 0 10 7 10 15 0 8 -4 15 -10 15 -5 0
-10 -7 -10 -15z"/>
<path d="M390 378 c0 -19 2 -20 10 -8 13 19 13 30 0 30 -5 0 -10 -10 -10 -22z"/>
<path d="M430 381 c0 -12 5 -21 10 -21 6 0 10 6 10 14 0 8 -4 18 -10 21 -5 3
-10 -3 -10 -14z"/>
<path d="M470 380 c0 -11 5 -20 10 -20 6 0 10 9 10 20 0 11 -4 20 -10 20 -5 0
-10 -9 -10 -20z"/>
<path d="M545 370 c-3 -5 -1 -10 4 -10 6 0 11 5 11 10 0 6 -2 10 -4 10 -3 0
-8 -4 -11 -10z"/>
<path d="M605 340 c-3 -5 3 -10 14 -10 11 0 23 5 26 10 3 6 -3 10 -14 10 -11
0 -23 -4 -26 -10z"/>
<path d="M1124 397 c-4 -10 -2 -23 3 -28 14 -14 24 13 13 32 -7 11 -10 10 -16
-4z"/>
<path d="M1200 389 c0 -16 3 -17 25 -7 27 12 26 21 -5 23 -13 1 -20 -5 -20
-16z"/>
<path d="M1091 384 c0 -11 3 -14 6 -6 3 7 2 16 -1 19 -3 4 -6 -2 -5 -13z"/>
<path d="M1235 370 c-3 -5 -1 -10 4 -10 6 0 11 5 11 10 0 6 -2 10 -4 10 -3 0
-8 -4 -11 -10z"/>
<path d="M762 380 c0 -14 2 -19 5 -12 2 6 2 18 0 25 -3 6 -5 1 -5 -13z"/>
<path d="M686 375 c4 -8 8 -15 11 -15 2 0 11 7 19 15 14 13 13 15 -10 15 -18
0 -24 -4 -20 -15z"/>
<path d="M940 391 c0 -11 5 -23 10 -26 6 -4 10 5 10 19 0 14 -4 26 -10 26 -5
0 -10 -9 -10 -19z"/>
<path d="M872 380 c0 -14 2 -19 5 -12 2 6 2 18 0 25 -3 6 -5 1 -5 -13z"/>
<path d="M1343 394 c-3 -8 -1 -20 6 -27 8 -8 11 -4 11 16 0 30 -7 35 -17 11z"/>
<path d="M1451 384 c0 -11 3 -14 6 -6 3 7 2 16 -1 19 -3 4 -6 -2 -5 -13z"/>
<path d="M1415 370 c-3 -5 -1 -10 4 -10 6 0 11 5 11 10 0 6 -2 10 -4 10 -3 0
-8 -4 -11 -10z"/>
<path d="M1642 385 c0 -16 2 -22 5 -12 2 9 2 23 0 30 -3 6 -5 -1 -5 -18z"/>
<path d="M1766 402 c-3 -5 1 -18 9 -28 14 -18 14 -18 15 3 0 23 -15 39 -24 25z"/>
<path d="M1710 396 c0 -2 7 -6 15 -10 8 -3 15 -1 15 4 0 6 -7 10 -15 10 -8 0
-15 -2 -15 -4z"/>
<path d="M3306 123 c-6 -14 -5 -15 5 -6 7 7 10 15 7 18 -3 3 -9 -2 -12 -12z"/>
<path d="M310 1610 c0 -5 5 -10 11 -10 5 0 7 5 4 10 -3 6 -8 10 -11 10 -2 0
-4 -4 -4 -10z"/>
<path d="M435 1590 c-3 -5 -1 -10 4 -10 6 0 11 5 11 10 0 6 -2 10 -4 10 -3 0
-8 -4 -11 -10z"/>
<path d="M510 1580 c0 -5 5 -10 11 -10 5 0 7 5 4 10 -3 6 -8 10 -11 10 -2 0
-4 -4 -4 -10z"/>
<path d="M491 1531 c-8 -6 -9 -11 -3 -15 6 -3 14 -1 17 5 9 14 2 20 -14 10z"/>
<path d="M600 1518 c0 -4 4 -8 9 -8 6 0 12 4 15 8 3 5 -1 9 -9 9 -8 0 -15 -4
-15 -9z"/>
<path d="M530 1499 c0 -5 5 -7 10 -4 6 3 10 1 10 -4 0 -6 -8 -11 -17 -11 -15
0 -16 -2 -3 -10 11 -7 19 -5 27 7 10 13 10 18 0 25 -17 11 -27 10 -27 -3z"/>
<path d="M333 1492 c-25 -4 -30 -17 -12 -28 6 -3 15 0 20 7 7 12 9 12 9 0 0
-11 4 -9 15 5 11 14 14 15 9 3 -3 -10 0 -20 6 -24 8 -5 11 0 8 15 -3 24 -16
29 -55 22z"/>
<path d="M606 1488 c3 -5 10 -6 15 -3 13 9 11 12 -6 12 -8 0 -12 -4 -9 -9z"/>
<path d="M595 1456 c-18 -13 -18 -14 6 -26 21 -12 22 -11 12 2 -10 11 -10 17
-1 26 16 16 6 15 -17 -2z"/>
<path d="M533 1453 c4 -3 5 -8 2 -13 -3 -4 6 -10 19 -12 17 -4 23 -1 19 9 -3
7 -9 13 -13 13 -5 0 -14 2 -22 3 -7 2 -10 2 -5 0z"/>
<path d="M50 1379 c0 -5 5 -7 10 -4 6 3 10 8 10 11 0 2 -4 4 -10 4 -5 0 -10
-5 -10 -11z"/>
<path d="M577 1383 c-12 -11 -8 -33 6 -30 7 1 11 -7 9 -20 -2 -13 1 -23 7 -23
5 0 18 -3 28 -6 10 -3 14 -2 8 3 -5 4 -12 17 -13 27 -3 16 -1 18 10 9 10 -9
13 -6 14 13 2 24 1 24 -17 8 -15 -14 -21 -14 -34 -4 -8 7 -12 16 -9 21 6 11 0
12 -9 2z m38 -53 c3 -5 1 -10 -4 -10 -6 0 -11 5 -11 10 0 6 2 10 4 10 3 0 8
-4 11 -10z"/>
<path d="M611 1381 c-8 -5 -9 -11 -3 -15 5 -3 12 1 16 9 6 17 6 18 -13 6z"/>
<path d="M20 1370 c11 -7 12 -10 2 -10 -10 0 -10 -3 2 -15 8 -8 19 -15 24 -15
6 0 12 -5 14 -10 2 -6 9 0 17 12 13 22 13 22 -4 8 -17 -14 -18 -13 -12 3 4 10
3 16 -2 13 -5 -3 -11 1 -15 9 -3 8 -13 15 -23 15 -15 0 -16 -2 -3 -10z"/>
<path d="M690 1351 c0 -6 4 -13 10 -16 6 -3 7 1 4 9 -7 18 -14 21 -14 7z"/>
<path d="M801 1344 c0 -11 3 -14 6 -6 3 7 2 16 -1 19 -3 4 -6 -2 -5 -13z"/>
<path d="M541 1341 c-7 -5 -12 -14 -10 -20 2 -6 10 -2 17 9 14 22 13 23 -7 11z"/>
<path d="M10 1319 c0 -11 4 -18 10 -14 5 3 7 12 3 20 -7 21 -13 19 -13 -6z"/>
<path d="M450 1331 c0 -6 4 -13 10 -16 6 -3 7 1 4 9 -7 18 -14 21 -14 7z"/>
<path d="M745 1319 c-4 -5 -8 -21 -10 -35 -2 -19 1 -22 9 -14 6 6 11 22 11 35
1 28 -1 30 -10 14z"/>
<path d="M581 1291 c-9 -6 -10 -11 -2 -15 6 -4 11 -4 11 1 0 4 5 1 10 -7 8
-13 10 -13 10 2 0 21 -12 29 -29 19z"/>
<path d="M635 1280 c3 -5 8 -10 11 -10 2 0 4 5 4 10 0 6 -5 10 -11 10 -5 0 -7
-4 -4 -10z"/>
<path d="M689 1288 c-8 -27 -5 -36 9 -30 10 4 12 7 4 10 -7 2 -10 8 -6 13 3 5
3 9 0 9 -3 0 -6 -1 -7 -2z"/>
<path d="M838 1283 c7 -3 16 -2 19 1 4 3 -2 6 -13 5 -11 0 -14 -3 -6 -6z"/>
<path d="M5998 1283 c6 -2 18 -2 25 0 6 3 1 5 -13 5 -14 0 -19 -2 -12 -5z"/>
<path d="M776 1272 c-3 -5 1 -9 9 -9 8 0 12 4 9 9 -3 4 -7 8 -9 8 -2 0 -6 -4
-9 -8z"/>
<path d="M965 1250 c5 -9 1 -11 -16 -6 -13 3 -18 3 -11 0 10 -5 9 -10 -4 -25
-17 -18 -16 -20 2 -34 23 -18 31 -18 40 -3 5 7 2 9 -7 6 -8 -3 -19 0 -26 7
-15 16 -4 28 12 15 9 -8 14 -4 17 15 3 14 1 28 -5 32 -6 4 -7 1 -2 -7z"/>
<path d="M723 1238 c4 -10 0 -21 -9 -26 -13 -7 -12 -11 5 -26 12 -11 21 -14
26 -7 3 6 3 11 -2 11 -4 0 -3 4 4 8 8 5 5 14 -10 32 -12 15 -18 18 -14 8z"/>
<path d="M756 1235 c-5 -13 -2 -14 17 -4 32 17 33 19 10 19 -12 0 -23 -7 -27
-15z"/>
<path d="M1100 1228 c0 -4 6 -8 14 -8 8 0 17 4 20 8 2 4 -4 8 -15 8 -10 0 -19
-4 -19 -8z"/>
<path d="M774 1219 c-4 -8 -3 -9 4 -5 7 4 12 3 12 -3 0 -5 -7 -11 -15 -13 -10
-2 -12 -8 -6 -17 11 -17 31 -5 31 19 0 23 -16 35 -26 19z"/>
<path d="M988 1223 c7 -3 16 -2 19 1 4 3 -2 6 -13 5 -11 0 -14 -3 -6 -6z"/>
<path d="M1305 1220 c-3 -6 1 -7 9 -4 18 7 21 14 7 14 -6 0 -13 -4 -16 -10z"/>
<path d="M1294 1159 c-3 -6 -2 -15 3 -20 5 -5 9 -1 10 11 2 22 -2 25 -13 9z"/>
<path d="M1535 1110 c-3 -5 1 -10 10 -10 9 0 13 5 10 10 -3 6 -8 10 -10 10 -2
0 -7 -4 -10 -10z"/>
<path d="M1600 1110 c-8 -5 -10 -10 -5 -10 6 0 17 5 25 10 8 5 11 10 5 10 -5
0 -17 -5 -25 -10z"/>
<path d="M1680 1111 c0 -7 -5 -9 -12 -5 -7 5 -8 3 -3 -5 5 -9 10 -10 18 -2 6
6 8 14 4 18 -4 3 -7 1 -7 -6z"/>
<path d="M1608 1083 c7 -3 16 -2 19 1 4 3 -2 6 -13 5 -11 0 -14 -3 -6 -6z"/>
<path d="M1685 1057 c-16 -21 -16 -37 1 -37 8 0 13 4 10 9 -4 5 4 7 16 3 16
-4 18 -7 7 -11 -19 -8 -22 -28 -3 -28 8 0 14 4 14 9 0 5 4 7 9 3 5 -3 13 0 17
6 4 7 3 9 -4 5 -6 -3 -14 3 -17 15 -4 11 -9 18 -12 15 -4 -3 -11 1 -17 9 -9
11 -13 11 -21 2z"/>
<path d="M1770 1016 c0 -9 5 -16 10 -16 6 0 10 4 10 9 0 6 -4 13 -10 16 -5 3
-10 -1 -10 -9z"/>
<path d="M1876 951 c-12 -5 -15 -10 -9 -14 6 -4 16 0 23 8 14 17 13 17 -14 6z"/>
<path d="M1920 911 c0 -6 4 -12 8 -15 5 -3 9 1 9 9 0 8 -4 15 -9 15 -4 0 -8
-4 -8 -9z"/>
<path d="M2030 820 c-13 -8 -12 -10 3 -10 9 0 17 5 17 10 0 12 -1 12 -20 0z"/>
<path d="M2000 790 c-13 -8 -12 -10 3 -10 14 0 16 -6 12 -27 -3 -16 -2 -21 2
-13 9 22 26 35 48 38 24 4 45 22 22 18 -9 -1 -20 -5 -23 -9 -4 -4 -14 -1 -22
6 -13 9 -14 9 -8 0 4 -7 3 -13 -3 -13 -5 0 -11 4 -13 10 -2 6 -8 6 -18 0z"/>
<path d="M1965 780 c-3 -5 -1 -10 4 -10 6 0 11 5 11 10 0 6 -2 10 -4 10 -3 0
-8 -4 -11 -10z"/>
<path d="M2065 730 c-4 -6 3 -10 14 -10 25 0 27 6 6 13 -8 4 -17 2 -20 -3z"/>
<path d="M2220 700 c0 -5 5 -10 11 -10 5 0 7 5 4 10 -3 6 -8 10 -11 10 -2 0
-4 -4 -4 -10z"/>
<path d="M2150 691 c0 -5 5 -13 10 -16 6 -3 10 -2 10 4 0 5 -4 13 -10 16 -5 3
-10 2 -10 -4z"/>
<path d="M2060 686 c0 -2 7 -6 15 -10 8 -3 15 -1 15 4 0 6 -7 10 -15 10 -8 0
-15 -2 -15 -4z"/>
<path d="M2110 676 c0 -2 9 -6 20 -9 11 -3 18 -1 14 4 -5 9 -34 13 -34 5z"/>
<path d="M2232 668 c2 -6 10 -13 16 -14 7 -1 8 0 2 3 -5 2 -8 9 -4 14 3 5 0 9
-6 9 -7 0 -10 -5 -8 -12z"/>
<path d="M2223 600 c4 -49 37 -80 50 -47 4 10 -2 13 -21 10 -15 -2 -21 0 -15
3 9 4 10 11 2 25 -5 11 -7 24 -4 29 3 5 1 11 -5 15 -7 4 -9 -8 -7 -35z"/>
<path d="M2250 620 c-8 -5 -11 -12 -7 -16 4 -4 15 0 24 9 18 18 8 23 -17 7z"/>
<path d="M2460 531 c0 -6 4 -13 10 -16 6 -3 7 1 4 9 -7 18 -14 21 -14 7z"/>
<path d="M2493 515 c0 -8 6 -15 14 -15 7 0 13 -9 13 -19 0 -14 5 -18 20 -14
15 4 20 0 20 -16 0 -21 14 -28 24 -12 3 5 16 7 29 5 21 -4 21 -4 -2 6 -13 6
-21 16 -18 23 4 10 -3 13 -21 12 -17 -1 -37 7 -53 22 -19 18 -26 20 -26 8z"/>
<path d="M2420 501 c0 -11 5 -23 12 -27 7 -4 8 -3 4 4 -4 7 -3 12 2 12 5 0 9
7 9 15 0 8 -6 15 -14 15 -7 0 -13 -9 -13 -19z"/>
<path d="M2649 503 c-13 -16 -12 -17 4 -4 15 12 17 11 17 -3 0 -9 8 -16 18
-15 10 0 12 3 5 6 -7 2 -13 11 -13 19 0 19 -15 18 -31 -3z"/>
<path d="M2330 484 c0 -8 5 -12 10 -9 6 4 8 11 5 16 -9 14 -15 11 -15 -7z"/>
<path d="M2467 494 c-6 -10 9 -42 16 -34 3 3 1 14 -3 24 -3 11 -9 15 -13 10z"/>
<path d="M2656 462 c-3 -6 -1 -14 5 -17 14 -9 20 -2 10 14 -6 8 -11 9 -15 3z"/>
<path d="M2885 449 c-4 -6 -5 -12 -2 -15 2 -3 7 2 10 11 7 17 1 20 -8 4z"/>
<path d="M2795 441 c-3 -6 -10 -9 -15 -6 -4 3 -6 -4 -3 -16 4 -16 8 -17 14 -7
5 7 9 9 9 4 0 -6 5 -5 12 2 9 9 9 15 1 23 -8 8 -13 8 -18 0z"/>
<path d="M2396 427 c3 -10 9 -15 12 -12 3 3 0 11 -7 18 -10 9 -11 8 -5 -6z"/>
<path d="M2751 411 c-11 -7 -11 -13 2 -32 l16 -23 -2 32 c-1 18 -2 32 -2 32 0
0 -6 -4 -14 -9z"/>
<path d="M2974 411 c7 -11 46 -35 46 -28 0 3 -12 12 -26 22 -15 9 -23 12 -20
6z"/>
<path d="M1880 391 c0 -23 9 -31 26 -24 21 8 17 30 -6 36 -14 4 -20 0 -20 -12z"/>
<path d="M1950 391 c0 -12 5 -21 10 -21 6 0 10 6 10 14 0 8 -4 18 -10 21 -5 3
-10 -3 -10 -14z"/>
<path d="M2940 400 c-9 -6 -10 -10 -3 -10 6 0 15 5 18 10 8 12 4 12 -15 0z"/>
<path d="M2032 380 c0 -14 2 -19 5 -12 2 6 2 18 0 25 -3 6 -5 1 -5 -13z"/>
<path d="M2072 380 c0 -14 2 -19 5 -12 2 6 2 18 0 25 -3 6 -5 1 -5 -13z"/>
<path d="M2255 381 c2 -15 7 -17 35 -12 21 3 9 29 -14 29 -16 0 -23 -6 -21
-17z"/>
<path d="M2880 385 c0 -6 6 -12 13 -12 8 0 14 6 14 12 0 6 -6 12 -14 12 -7 0
-13 -6 -13 -12z"/>
<path d="M3085 390 c3 -5 8 -10 11 -10 2 0 4 5 4 10 0 6 -5 10 -11 10 -5 0 -7
-4 -4 -10z"/>
<path d="M2145 381 c-9 -16 9 -20 23 -5 10 12 10 14 -2 14 -8 0 -17 -4 -21 -9z"/>
<path d="M3037 355 c3 -8 9 -12 14 -9 12 7 11 11 -5 17 -10 4 -13 1 -9 -8z"/>
<path d="M3085 360 c4 -6 11 -8 16 -5 14 9 11 15 -7 15 -8 0 -12 -5 -9 -10z"/>
<path d="M2956 338 c3 -5 10 -6 15 -3 13 9 11 12 -6 12 -8 0 -12 -4 -9 -9z"/>
<path d="M3283 295 c0 -8 4 -15 9 -15 4 0 8 4 8 9 0 6 -4 12 -8 15 -5 3 -9 -1
-9 -9z"/>
<path d="M2920 290 c0 -5 5 -10 11 -10 5 0 7 5 4 10 -3 6 -8 10 -11 10 -2 0
-4 -4 -4 -10z"/>
<path d="M3322 277 c-8 -10 -6 -13 11 -14 12 0 16 1 9 4 -6 3 -10 9 -6 14 8
14 -2 11 -14 -4z"/>
<path d="M3337 239 c7 -7 15 -10 18 -7 3 3 -2 9 -12 12 -14 6 -15 5 -6 -5z"/>
<path d="M3503 135 c0 -7 6 -11 14 -8 7 3 13 6 13 8 0 2 -6 5 -13 8 -8 3 -14
-1 -14 -8z"/>
<path d="M3444 111 c3 -5 15 -7 26 -4 11 3 20 0 20 -6 0 -6 7 -11 15 -11 8 0
15 5 15 11 0 5 -4 8 -9 4 -5 -3 -12 -1 -16 5 -3 5 -17 10 -31 10 -14 0 -23 -4
-20 -9z"/>
<path d="M3437 57 c-6 -16 2 -37 14 -37 6 0 8 4 4 9 -3 6 3 9 14 8 15 -1 17
-4 10 -14 -8 -9 -5 -11 10 -10 11 0 17 5 14 10 -3 5 1 14 8 19 12 8 11 9 -1 5
-8 -2 -27 2 -42 9 -20 11 -27 11 -31 1z"/>
<path d="M3546 62 c-3 -5 1 -9 9 -9 8 0 12 4 9 9 -3 4 -7 8 -9 8 -2 0 -6 -4
-9 -8z"/>
<path d="M3405 31 c-3 -6 -14 -8 -25 -6 -11 2 -20 0 -20 -6 0 -5 16 -8 35 -6
20 1 35 7 35 15 0 14 -16 16 -25 3z"/>
</g>
</svg>
